<?xml version="1.0" encoding="UTF-8"?>
<!DOCTYPE svg PUBLIC "-//W3C//DTD SVG 1.1//EN" "http://www.w3.org/Graphics/SVG/1.1/DTD/svg11.dtd">
<svg xmlns="http://www.w3.org/2000/svg" version="1.1" width="1012px" height="1012px" style="shape-rendering:geometricPrecision; text-rendering:geometricPrecision; image-rendering:optimizeQuality; fill-rule:evenodd; clip-rule:evenodd" xmlns:xlink="http://www.w3.org/1999/xlink">
<g><path style="opacity:0.435" fill="#d7e7f2" d="M 596.5,8.5 C 598.499,339.498 599.166,670.832 598.5,1002.5C 593.964,1001.91 589.631,1000.91 585.5,999.5C 587.5,999.5 589.5,999.5 591.5,999.5C 593.216,999.629 594.883,999.962 596.5,1000.5C 597.833,669.931 597.833,339.264 596.5,8.5 Z"/></g>
<g><path style="opacity:0.278" fill="#e0ebf4" d="M 594.5,8.5 C 594.443,9.60895 594.11,10.609 593.5,11.5C 592.5,11.5 591.5,11.5 590.5,11.5C 588.833,11.5 587.167,11.5 585.5,11.5C 588.425,10.5252 591.425,9.52515 594.5,8.5 Z"/></g>
<g><path style="opacity:0.914" fill="#3385c9" d="M 594.5,8.5 C 595.167,8.5 595.833,8.5 596.5,8.5C 597.833,339.264 597.833,669.931 596.5,1000.5C 596.5,994.5 596.5,988.5 596.5,982.5C 596.667,658.5 596.5,334.5 596,10.5C 595.329,11.2524 594.496,11.5858 593.5,11.5C 594.11,10.609 594.443,9.60895 594.5,8.5 Z"/></g>
<g><path style="opacity:0.804" fill="#93badd" d="M 585.5,11.5 C 587.167,11.5 588.833,11.5 590.5,11.5C 589.791,12.404 588.791,12.7373 587.5,12.5C 585.283,13.3686 582.95,13.702 580.5,13.5C 580.5,13.1667 580.5,12.8333 580.5,12.5C 581.919,11.5489 583.585,11.2155 585.5,11.5 Z"/></g>
<g><path style="opacity:0.129" fill="#dbe8f2" d="M 580.5,12.5 C 580.5,12.8333 580.5,13.1667 580.5,13.5C 573.916,15.145 567.249,16.4784 560.5,17.5C 557.219,17.4203 554.219,18.087 551.5,19.5C 544.966,21.144 538.299,22.144 531.5,22.5C 547.592,18.2456 563.925,14.9123 580.5,12.5 Z"/></g>
<g><path style="opacity:1" fill="#006cc5" d="M 587.5,12.5 C 589.518,13.0472 591.351,14.0472 593,15.5C 593.667,12.8333 594.333,12.8333 595,15.5C 595.167,338 595.667,660.334 596.5,982.5C 596.5,988.5 596.5,994.5 596.5,1000.5C 594.883,999.962 593.216,999.629 591.5,999.5C 591.389,998.883 591.056,998.383 590.5,998C 587.183,997.502 583.85,997.335 580.5,997.5C 567.484,995.333 554.484,992.666 541.5,989.5C 541.119,988.069 540.119,987.236 538.5,987C 542.19,986.576 542.357,985.742 539,984.5C 537.035,985.885 535.202,985.718 533.5,984C 536.076,982.617 535.742,981.783 532.5,981.5C 529.192,981.383 528.859,982.05 531.5,983.5C 530.975,984.192 530.308,984.692 529.5,985C 526.151,985.388 522.817,985.221 519.5,984.5C 518.833,984.5 518.167,984.5 517.5,984.5C 516.398,982.908 517.065,982.075 519.5,982C 514.172,983.334 509.172,982.501 504.5,979.5C 503.264,980.246 501.93,980.579 500.5,980.5C 494.274,980.075 488.274,979.075 482.5,977.5C 482.389,976.883 482.056,976.383 481.5,976C 478.183,975.502 474.85,975.335 471.5,975.5C 470.942,974.21 469.942,973.377 468.5,973C 465.168,972.751 462.001,971.918 459,970.5C 458.228,970.645 457.561,970.978 457,971.5C 456.692,970.692 456.192,970.025 455.5,969.5C 454.476,970.853 453.143,971.52 451.5,971.5C 447.023,970.138 442.357,969.138 437.5,968.5C 432.894,966.124 427.894,965.124 422.5,965.5C 414.411,964.014 406.411,962.348 398.5,960.5C 398.389,959.883 398.056,959.383 397.5,959C 393.187,958.265 388.853,957.765 384.5,957.5C 372.618,955.183 360.618,952.85 348.5,950.5C 346.162,948.96 343.495,948.294 340.5,948.5C 328.28,945.873 315.947,943.873 303.5,942.5C 300.126,940.93 296.459,939.763 292.5,939C 289.854,938.503 287.187,938.336 284.5,938.5C 284.5,938.167 284.5,937.833 284.5,937.5C 283.934,935.922 282.934,934.588 281.5,933.5C 279.132,935.223 276.466,935.89 273.5,935.5C 272.292,934.766 270.959,934.433 269.5,934.5C 266.829,932.882 263.829,932.215 260.5,932.5C 260.167,932.5 259.833,932.5 259.5,932.5C 259.389,931.883 259.056,931.383 258.5,931C 253.882,930.006 249.215,929.506 244.5,929.5C 241.833,928.167 239.167,928.167 236.5,929.5C 235.833,929.5 235.5,929.167 235.5,928.5C 234.01,926.72 232.01,926.054 229.5,926.5C 226.781,925.087 223.781,924.42 220.5,924.5C 216.833,923.833 213.167,923.167 209.5,922.5C 206.781,921.087 203.781,920.42 200.5,920.5C 194.009,918.547 187.342,917.547 180.5,917.5C 180.209,916.351 179.376,915.684 178,915.5C 158.728,912.28 139.562,908.614 120.5,904.5C 118.485,903.076 116.152,902.41 113.5,902.5C 109.342,902.668 105.342,902.002 101.5,900.5C 99.7274,899.108 97.7274,897.941 95.5,897C 94.8742,896.25 94.3742,895.416 94,894.5C 92.9914,895.658 91.6581,896.325 90,896.5C 85.5302,895.736 81.0302,895.403 76.5,895.5C 75.0813,894.549 73.4147,894.216 71.5,894.5C 69.4006,893.388 67.0673,892.721 64.5,892.5C 53.6387,891.318 42.9721,889.318 32.5,886.5C 29.4115,885.215 26.0781,884.549 22.5,884.5C 22.1667,884.5 21.8333,884.5 21.5,884.5C 19.8148,882.182 17.4815,881.182 14.5,881.5C 14.8325,814.665 14.4992,747.998 13.5,681.5C 14.2512,497.375 14.5845,313.042 14.5,128.5C 15.791,128.737 16.791,128.404 17.5,127.5C 18.5,127.5 19.5,127.5 20.5,127.5C 23.0098,127.073 25.3432,126.407 27.5,125.5C 42.3156,122.687 56.9822,119.687 71.5,116.5C 77.6902,118.287 83.3568,117.287 88.5,113.5C 91.9032,112.075 95.5698,111.242 99.5,111C 100.056,110.617 100.389,110.117 100.5,109.5C 105.93,109.483 111.263,108.817 116.5,107.5C 122.076,107.129 127.409,106.129 132.5,104.5C 135.187,104.664 137.854,104.497 140.5,104C 143.3,102.768 146.3,102.101 149.5,102C 150.056,101.617 150.389,101.117 150.5,100.5C 154.649,101.08 158.316,100.414 161.5,98.5C 163.806,98.0074 166.139,97.6741 168.5,97.5C 171.01,97.0733 173.343,96.4067 175.5,95.5C 175.833,95.5 176.167,95.5 176.5,95.5C 179.829,95.7847 182.829,95.1181 185.5,93.5C 204.046,90.025 222.379,86.025 240.5,81.5C 242.857,81.6633 245.19,81.4966 247.5,81C 248.056,80.6174 248.389,80.1174 248.5,79.5C 252.857,79.4135 257.19,79.0802 261.5,78.5C 263.199,78.3398 264.866,78.5065 266.5,79C 265.007,80.1562 265.174,80.9896 267,81.5C 268.059,81.3699 268.892,80.8699 269.5,80C 268.167,79.3333 268.167,78.6667 269.5,78C 273.346,77.9871 276.679,76.8204 279.5,74.5C 283.649,75.0803 287.316,74.4136 290.5,72.5C 299.375,70.1894 308.375,68.5228 317.5,67.5C 324.949,67.7074 332.282,66.3741 339.5,63.5C 340.167,64.1667 340.833,64.8333 341.5,65.5C 343.776,64.7868 346.109,64.2868 348.5,64C 349.641,63.2588 349.641,62.4255 348.5,61.5C 352.121,60.9867 355.454,59.9867 358.5,58.5C 362.182,58.6653 365.848,58.4986 369.5,58C 370.682,56.3217 371.848,56.4883 373,58.5C 374.092,57.7039 375.259,57.0372 376.5,56.5C 380.501,57.3471 384.835,57.1805 389.5,56C 389.167,55.6667 388.833,55.3333 388.5,55C 389.942,54.6232 390.942,53.7899 391.5,52.5C 393.5,51.8333 395.5,51.1667 397.5,50.5C 400.405,51.3517 403.238,51.685 406,51.5C 407.045,50.6266 407.878,49.6266 408.5,48.5C 413.559,47.902 418.559,47.902 423.5,48.5C 424.711,47.7261 424.711,46.8928 423.5,46C 427.179,45.9735 430.512,45.1402 433.5,43.5C 439.738,42.174 446.071,40.8407 452.5,39.5C 457.519,39.2478 462.519,38.7478 467.5,38C 468.056,37.6174 468.389,37.1174 468.5,36.5C 468.5,36.1667 468.5,35.8333 468.5,35.5C 471.385,35.8064 474.052,35.4731 476.5,34.5C 480.649,35.0803 484.316,34.4136 487.5,32.5C 491.182,32.6653 494.848,32.4986 498.5,32C 498.167,31.6667 497.833,31.3333 497.5,31C 498.737,30.7679 499.737,30.2679 500.5,29.5C 501.167,29.5 501.5,29.1667 501.5,28.5C 505.481,27.9791 509.481,27.6458 513.5,27.5C 516.428,27.4349 519.095,26.7682 521.5,25.5C 521.833,25.5 522.167,25.5 522.5,25.5C 525.992,25.554 528.992,24.554 531.5,22.5C 538.299,22.144 544.966,21.144 551.5,19.5C 554.781,19.5797 557.781,18.913 560.5,17.5C 567.249,16.4784 573.916,15.145 580.5,13.5C 582.95,13.702 585.283,13.3686 587.5,12.5 Z"/></g>
<g><path style="opacity:1" fill="#026bcc" d="M 589.5,15.5 C 590.756,15.4614 591.756,15.9614 592.5,17C 591.833,339.333 591.167,661.667 590.5,984C 593.028,985.316 593.028,986.483 590.5,987.5C 589.692,987.192 589.025,986.692 588.5,986C 589.17,664.894 589.836,343.727 590.5,22.5C 590.363,20.1166 590.029,17.7832 589.5,15.5 Z"/></g>
<g><path style="opacity:1" fill="#0369bc" d="M 596.5,982.5 C 595.667,660.334 595.167,338 595,15.5C 594.333,12.8333 593.667,12.8333 593,15.5C 591.351,14.0472 589.518,13.0472 587.5,12.5C 588.791,12.7373 589.791,12.404 590.5,11.5C 591.5,11.5 592.5,11.5 593.5,11.5C 594.496,11.5858 595.329,11.2524 596,10.5C 596.5,334.5 596.667,658.5 596.5,982.5 Z"/></g>
<g><path style="opacity:0.804" fill="#6ba2d3" d="M 560.5,17.5 C 557.781,18.913 554.781,19.5797 551.5,19.5C 554.219,18.087 557.219,17.4203 560.5,17.5 Z"/></g>
<g><path style="opacity:0.129" fill="#f2f7fa" d="M 525.5,23.5 C 524.5,24.1667 523.5,24.8333 522.5,25.5C 522.167,25.5 521.833,25.5 521.5,25.5C 520.833,25.5 520.167,25.5 519.5,25.5C 520.99,23.7202 522.99,23.0535 525.5,23.5 Z"/></g>
<g><path style="opacity:0.804" fill="#9fc1e0" d="M 531.5,22.5 C 528.992,24.554 525.992,25.554 522.5,25.5C 523.5,24.8333 524.5,24.1667 525.5,23.5C 527.265,22.5386 529.265,22.2053 531.5,22.5 Z"/></g>
<g><path style="opacity:0.278" fill="#ebf2f8" d="M 516.5,25.5 C 515.5,26.1667 514.5,26.8333 513.5,27.5C 509.481,27.6458 505.481,27.9791 501.5,28.5C 506.23,26.7632 511.23,25.7632 516.5,25.5 Z"/></g>
<g><path style="opacity:0.914" fill="#659dd1" d="M 516.5,25.5 C 517.5,25.5 518.5,25.5 519.5,25.5C 520.167,25.5 520.833,25.5 521.5,25.5C 519.095,26.7682 516.428,27.4349 513.5,27.5C 514.5,26.8333 515.5,26.1667 516.5,25.5 Z"/></g>
<g><path style="opacity:0.129" fill="#e8f1f7" d="M 501.5,28.5 C 501.5,29.1667 501.167,29.5 500.5,29.5C 496.314,30.9079 491.981,31.5745 487.5,31.5C 491.946,29.9728 496.613,28.9728 501.5,28.5 Z"/></g>
<g><path style="opacity:0.996" fill="#6f9cce" d="M 500.5,29.5 C 499.737,30.2679 498.737,30.7679 497.5,31C 497.833,31.3333 498.167,31.6667 498.5,32C 494.848,32.4986 491.182,32.6653 487.5,32.5C 485.5,32.5 483.5,32.5 481.5,32.5C 483.265,31.5386 485.265,31.2053 487.5,31.5C 491.981,31.5745 496.314,30.9079 500.5,29.5 Z"/></g>
<g><path style="opacity:0.129" fill="#e7eff6" d="M 481.5,32.5 C 479.833,33.1667 478.167,33.8333 476.5,34.5C 474.052,35.4731 471.385,35.8064 468.5,35.5C 472.445,33.3738 476.778,32.3738 481.5,32.5 Z"/></g>
<g><path style="opacity:0.996" fill="#4885c1" d="M 481.5,32.5 C 483.5,32.5 485.5,32.5 487.5,32.5C 484.316,34.4136 480.649,35.0803 476.5,34.5C 478.167,33.8333 479.833,33.1667 481.5,32.5 Z"/></g>
<g><path style="opacity:0.278" fill="#e5eef6" d="M 468.5,35.5 C 468.5,35.8333 468.5,36.1667 468.5,36.5C 462.924,36.8711 457.591,37.8711 452.5,39.5C 446.071,40.8407 439.738,42.174 433.5,43.5C 428.463,43.9075 423.463,44.5742 418.5,45.5C 426.506,43.2418 434.673,41.2418 443,39.5C 443.914,40.6537 444.747,40.487 445.5,39C 453.11,37.3982 460.777,36.2315 468.5,35.5 Z"/></g>
<g><path style="opacity:1" fill="#4182c4" d="M 468.5,36.5 C 468.389,37.1174 468.056,37.6174 467.5,38C 462.519,38.7478 457.519,39.2478 452.5,39.5C 457.591,37.8711 462.924,36.8711 468.5,36.5 Z"/></g>
<g><path style="opacity:1" fill="#4081c4" d="M 433.5,43.5 C 430.512,45.1402 427.179,45.9735 423.5,46C 424.711,46.8928 424.711,47.7261 423.5,48.5C 418.559,47.902 413.559,47.902 408.5,48.5C 411.535,47.6255 414.535,46.6255 417.5,45.5C 417.833,45.5 418.167,45.5 418.5,45.5C 423.463,44.5742 428.463,43.9075 433.5,43.5 Z"/></g>
<g><path style="opacity:0.996" fill="#4381bd" d="M 408.5,48.5 C 407.878,49.6266 407.045,50.6266 406,51.5C 403.238,51.685 400.405,51.3517 397.5,50.5C 400.946,49.3126 404.613,48.6459 408.5,48.5 Z"/></g>
<g><path style="opacity:0.435" fill="#d7e5f1" d="M 417.5,45.5 C 414.535,46.6255 411.535,47.6255 408.5,48.5C 404.613,48.6459 400.946,49.3126 397.5,50.5C 395.5,51.1667 393.5,51.8333 391.5,52.5C 380.557,54.5242 369.557,56.1909 358.5,57.5C 370.019,54.2967 381.519,51.9634 393,50.5C 400.972,48.5042 408.972,46.5042 417,44.5C 417.399,44.7284 417.565,45.0618 417.5,45.5 Z"/></g>
<g><path style="opacity:1" fill="#2372be" d="M 391.5,52.5 C 390.942,53.7899 389.942,54.6232 388.5,55C 388.833,55.3333 389.167,55.6667 389.5,56C 384.835,57.1805 380.501,57.3471 376.5,56.5C 375.259,57.0372 374.092,57.7039 373,58.5C 371.848,56.4883 370.682,56.3217 369.5,58C 365.848,58.4986 362.182,58.6653 358.5,58.5C 358.5,58.1667 358.5,57.8333 358.5,57.5C 369.557,56.1909 380.557,54.5242 391.5,52.5 Z"/></g>
<g><path style="opacity:0.129" fill="#f2f7fa" d="M 353.5,58.5 C 351.5,59.1667 349.5,59.8333 347.5,60.5C 346.167,60.5 344.833,60.5 343.5,60.5C 346.507,58.8255 349.84,58.1588 353.5,58.5 Z"/></g>
<g><path style="opacity:0.278" fill="#d7e5f0" d="M 343.5,60.5 C 344.833,60.5 346.167,60.5 347.5,60.5C 341.087,62.3049 334.421,63.3049 327.5,63.5C 332.658,62.1816 337.991,61.1816 343.5,60.5 Z"/></g>
<g><path style="opacity:0.129" fill="#d5e4f1" d="M 327.5,63.5 C 324.992,65.2371 321.992,66.0704 318.5,66C 317.944,66.3826 317.611,66.8826 317.5,67.5C 308.375,68.5228 299.375,70.1894 290.5,72.5C 288.5,72.5 286.5,72.5 284.5,72.5C 298.25,68.9456 312.584,65.9456 327.5,63.5 Z"/></g>
<g><path style="opacity:1" fill="#3979c1" d="M 358.5,57.5 C 358.5,57.8333 358.5,58.1667 358.5,58.5C 355.454,59.9867 352.121,60.9867 348.5,61.5C 349.641,62.4255 349.641,63.2588 348.5,64C 346.109,64.2868 343.776,64.7868 341.5,65.5C 340.833,64.8333 340.167,64.1667 339.5,63.5C 332.282,66.3741 324.949,67.7074 317.5,67.5C 317.611,66.8826 317.944,66.3826 318.5,66C 321.992,66.0704 324.992,65.2371 327.5,63.5C 334.421,63.3049 341.087,62.3049 347.5,60.5C 349.5,59.8333 351.5,59.1667 353.5,58.5C 354.919,57.5489 356.585,57.2155 358.5,57.5 Z"/></g>
<g><path style="opacity:0.278" fill="#f2f7fa" d="M 283.5,72.5 C 282.167,73.1667 280.833,73.8333 279.5,74.5C 277.833,74.5 276.167,74.5 274.5,74.5C 277.219,73.087 280.219,72.4203 283.5,72.5 Z"/></g>
<g><path style="opacity:0.996" fill="#4584c0" d="M 283.5,72.5 C 283.833,72.5 284.167,72.5 284.5,72.5C 286.5,72.5 288.5,72.5 290.5,72.5C 287.316,74.4136 283.649,75.0803 279.5,74.5C 280.833,73.8333 282.167,73.1667 283.5,72.5 Z"/></g>
<g><path style="opacity:0.435" fill="#e1ecf4" d="M 274.5,74.5 C 270.276,76.2418 265.942,77.5751 261.5,78.5C 257.19,79.0802 252.857,79.4135 248.5,79.5C 256.995,77.5494 265.662,75.8827 274.5,74.5 Z"/></g>
<g><path style="opacity:1" fill="#2e77c0" d="M 274.5,74.5 C 276.167,74.5 277.833,74.5 279.5,74.5C 276.679,76.8204 273.346,77.9871 269.5,78C 268.167,78.6667 268.167,79.3333 269.5,80C 268.892,80.8699 268.059,81.3699 267,81.5C 265.174,80.9896 265.007,80.1562 266.5,79C 264.866,78.5065 263.199,78.3398 261.5,78.5C 265.942,77.5751 270.276,76.2418 274.5,74.5 Z"/></g>
<g><path style="opacity:0.129" fill="#f0f5f9" d="M 248.5,79.5 C 248.389,80.1174 248.056,80.6174 247.5,81C 245.19,81.4966 242.857,81.6633 240.5,81.5C 242.905,80.2318 245.572,79.5651 248.5,79.5 Z"/></g>
<g><path style="opacity:0.804" fill="#6ea5d4" d="M 185.5,93.5 C 182.829,95.1181 179.829,95.7847 176.5,95.5C 179.273,94.3428 182.273,93.6761 185.5,93.5 Z"/></g>
<g><path style="opacity:0.804" fill="#67a1d2" d="M 175.5,95.5 C 173.343,96.4067 171.01,97.0733 168.5,97.5C 168.611,96.8826 168.944,96.3826 169.5,96C 171.473,95.5045 173.473,95.3379 175.5,95.5 Z"/></g>
<g><path style="opacity:0.278" fill="#e2ecf5" d="M 240.5,81.5 C 222.379,86.025 204.046,90.025 185.5,93.5C 182.273,93.6761 179.273,94.3428 176.5,95.5C 176.167,95.5 175.833,95.5 175.5,95.5C 173.473,95.3379 171.473,95.5045 169.5,96C 168.944,96.3826 168.611,96.8826 168.5,97.5C 166.139,97.6741 163.806,98.0074 161.5,98.5C 157.613,98.6459 153.946,99.3126 150.5,100.5C 144.172,100.992 138.172,102.325 132.5,104.5C 130.5,104.5 128.5,104.5 126.5,104.5C 155.887,97.4271 185.387,91.4271 215,86.5C 223.268,83.8096 231.768,82.1429 240.5,81.5 Z"/></g>
<g><path style="opacity:0.996" fill="#4885c0" d="M 161.5,98.5 C 158.316,100.414 154.649,101.08 150.5,100.5C 153.946,99.3126 157.613,98.6459 161.5,98.5 Z"/></g>
<g><path style="opacity:0.996" fill="#4083c1" d="M 150.5,100.5 C 150.389,101.117 150.056,101.617 149.5,102C 146.3,102.101 143.3,102.768 140.5,104C 137.854,104.497 135.187,104.664 132.5,104.5C 138.172,102.325 144.172,100.992 150.5,100.5 Z"/></g>
<g><path style="opacity:0.651" fill="#a4c4e0" d="M 126.5,104.5 C 128.5,104.5 130.5,104.5 132.5,104.5C 127.409,106.129 122.076,107.129 116.5,107.5C 117.833,106.833 119.167,106.167 120.5,105.5C 122.265,104.539 124.265,104.205 126.5,104.5 Z"/></g>
<g><path style="opacity:0.435" fill="#dce8f2" d="M 120.5,105.5 C 119.167,106.167 117.833,106.833 116.5,107.5C 111.263,108.817 105.93,109.483 100.5,109.5C 107.055,108.082 113.722,106.749 120.5,105.5 Z"/></g>
<g><path style="opacity:1" fill="#3e81c4" d="M 88.5,113.5 C 83.3568,117.287 77.6902,118.287 71.5,116.5C 77.06,115.578 82.7266,114.578 88.5,113.5 Z"/></g>
<g><path style="opacity:0.435" fill="#dce8f2" d="M 100.5,109.5 C 100.389,110.117 100.056,110.617 99.5,111C 95.5698,111.242 91.9032,112.075 88.5,113.5C 82.7266,114.578 77.06,115.578 71.5,116.5C 56.9822,119.687 42.3156,122.687 27.5,125.5C 25.4727,125.338 23.4727,125.505 21.5,126C 20.944,126.383 20.6107,126.883 20.5,127.5C 19.5,127.5 18.5,127.5 17.5,127.5C 15.8333,127.5 14.1667,127.5 12.5,127.5C 41.6092,120.878 70.9425,114.878 100.5,109.5 Z"/></g>
<g><path style="opacity:0.804" fill="#6ea4d3" d="M 27.5,125.5 C 25.3432,126.407 23.0098,127.073 20.5,127.5C 20.6107,126.883 20.944,126.383 21.5,126C 23.4727,125.505 25.4727,125.338 27.5,125.5 Z"/></g>
<g><path style="opacity:0.804" fill="#5698cf" d="M 12.5,127.5 C 14.1667,127.5 15.8333,127.5 17.5,127.5C 16.791,128.404 15.791,128.737 14.5,128.5C 14.5845,313.042 14.2512,497.375 13.5,681.5C 12.8421,749.048 13.5088,816.381 15.5,883.5C 14.5,883.5 13.5,883.5 12.5,883.5C 12.5,631.5 12.5,379.5 12.5,127.5 Z"/></g>
<g><path style="opacity:0.278" fill="#eef4f9" d="M 672.5,184.5 C 668.5,185.5 664.5,186.5 660.5,187.5C 658.585,187.216 656.919,187.549 655.5,188.5C 653.5,188.833 651.5,189.167 649.5,189.5C 656.681,186.195 664.348,184.528 672.5,184.5 Z"/></g>
<g><path style="opacity:1" fill="#4182c4" d="M 672.5,184.5 C 672.833,184.5 673.167,184.5 673.5,184.5C 682.441,184.345 691.107,185.345 699.5,187.5C 698.849,188.091 698.182,188.757 697.5,189.5C 693.259,187.541 688.426,186.541 683,186.5C 677.653,186.037 672.653,187.037 668,189.5C 665.758,188.958 663.258,188.291 660.5,187.5C 664.5,186.5 668.5,185.5 672.5,184.5 Z"/></g>
<g><path style="opacity:1" fill="#036cc5" d="M 699.5,187.5 C 706.854,189.282 714.187,191.282 721.5,193.5C 728.208,198.406 735.208,203.239 742.5,208C 745.114,211.737 748.281,214.903 752,217.5C 755.383,222.978 759.217,227.978 763.5,232.5C 765.504,239.008 768.004,245.341 771,251.5C 773.041,259.417 774.541,267.417 775.5,275.5C 807.806,294.808 836.806,318.141 862.5,345.5C 863.08,347.749 864.413,349.415 866.5,350.5C 873.287,356.78 879.12,363.78 884,371.5C 888.301,376.637 892.801,381.637 897.5,386.5C 899.939,392.575 903.106,398.242 907,403.5C 909.826,406.484 912.159,409.817 914,413.5C 914.816,414.823 915.983,415.489 917.5,415.5C 922.547,417.395 927.88,418.395 933.5,418.5C 942.01,421.01 950.343,424.01 958.5,427.5C 958.414,428.496 958.748,429.329 959.5,430C 963.81,432.158 967.81,434.825 971.5,438C 974.039,440.37 976.372,442.87 978.5,445.5C 979.08,447.749 980.413,449.415 982.5,450.5C 983.833,451.5 985.167,452.5 986.5,453.5C 986.733,455.062 987.4,456.395 988.5,457.5C 989.451,460.102 990.784,462.435 992.5,464.5C 994.511,467.86 996.511,471.193 998.5,474.5C 998.145,478.077 999.145,481.077 1001.5,483.5C 1002.49,489.459 1003.16,495.459 1003.5,501.5C 1002.83,510.833 1002.17,520.167 1001.5,529.5C 998.923,541.237 994.59,552.237 988.5,562.5C 986.453,564.55 984.786,566.883 983.5,569.5C 965.015,589.361 942.015,600.861 914.5,604C 910.717,611.731 906.05,618.897 900.5,625.5C 899.212,627.739 898.212,630.072 897.5,632.5C 895.569,634.628 893.402,636.628 891,638.5C 887.549,642.786 884.715,647.453 882.5,652.5C 880.946,653.693 879.279,654.86 877.5,656C 876.027,659.631 873.694,662.464 870.5,664.5C 868.468,665.048 867.468,666.381 867.5,668.5C 858.369,678.132 849.036,687.632 839.5,697C 831.248,704.426 822.581,711.259 813.5,717.5C 811.5,717.833 809.5,718.167 807.5,718.5C 806.797,720.873 805.464,722.873 803.5,724.5C 794.566,731.405 785.066,737.738 775,743.5C 773.363,767.101 764.863,787.101 749.5,803.5C 746.911,804.419 744.911,806.086 743.5,808.5C 741.605,809.973 739.939,811.64 738.5,813.5C 736.973,813.427 735.973,814.094 735.5,815.5C 731.557,818.478 727.223,820.978 722.5,823C 721.748,823.671 721.414,824.504 721.5,825.5C 715.278,826.63 709.278,828.463 703.5,831C 685.195,834.679 667.195,833.845 649.5,828.5C 646.864,827.965 644.697,826.632 643,824.5C 642.167,766.83 642.333,709.164 643.5,651.5C 645.598,651.043 647.264,650.043 648.5,648.5C 649.5,648.5 650.5,648.5 651.5,648.5C 654.228,648.829 656.562,648.163 658.5,646.5C 670.373,644.498 682.373,643.998 694.5,645C 701.327,646.054 707.994,647.721 714.5,650C 717.938,650.92 720.938,652.587 723.5,655C 724.793,655.49 726.127,655.657 727.5,655.5C 731.549,658.196 735.216,661.363 738.5,665C 739.5,665.333 740.5,665.667 741.5,666C 749.067,672.732 755.734,680.232 761.5,688.5C 761.804,692.442 763.637,695.442 767,697.5C 770.62,695.704 773.787,693.37 776.5,690.5C 780.262,688.587 783.929,686.421 787.5,684C 788.71,682.961 789.71,681.794 790.5,680.5C 793.347,679.171 796.013,677.504 798.5,675.5C 804.171,669.831 810.171,664.497 816.5,659.5C 821.167,656.833 824.833,653.167 827.5,648.5C 833.47,641.195 839.803,634.195 846.5,627.5C 849.11,623.932 851.443,620.265 853.5,616.5C 856.323,615.008 857.99,612.674 858.5,609.5C 862.662,605.999 865.662,601.665 867.5,596.5C 867.5,596.167 867.5,595.833 867.5,595.5C 864.106,593.13 860.439,591.13 856.5,589.5C 849.561,583.899 842.894,577.899 836.5,571.5C 818.722,549.809 811.389,524.809 814.5,496.5C 817.35,490.254 819.017,483.588 819.5,476.5C 823.746,468.218 828.079,459.884 832.5,451.5C 840.957,442.699 849.957,434.699 859.5,427.5C 862.05,426.642 864.55,425.642 867,424.5C 867.667,422.5 867.667,420.5 867,418.5C 862.923,414.414 859.59,409.747 857,404.5C 855.042,402.224 852.875,400.224 850.5,398.5C 848.772,394.357 846.106,391.024 842.5,388.5C 841.308,386.122 839.641,384.122 837.5,382.5C 836.5,382.167 835.833,381.5 835.5,380.5C 825.109,367.775 813.443,356.442 800.5,346.5C 799.008,343.677 796.674,342.01 793.5,341.5C 792.461,339.469 790.795,338.136 788.5,337.5C 787.789,335.97 786.789,334.637 785.5,333.5C 784.281,329.62 781.615,327.62 777.5,327.5C 776.833,327.5 776.167,327.5 775.5,327.5C 772.812,324.326 769.478,322.492 765.5,322C 761.184,328.808 756.851,335.641 752.5,342.5C 748.737,345.317 745.403,348.651 742.5,352.5C 740.246,353.124 738.579,354.457 737.5,356.5C 737.5,357.167 737.167,357.5 736.5,357.5C 730.914,360.384 725.247,363.217 719.5,366C 718.619,366.708 717.953,367.542 717.5,368.5C 692.311,376.803 667.311,376.47 642.5,367.5C 641.837,308.824 642.504,250.49 644.5,192.5C 648.306,191.413 651.973,190.079 655.5,188.5C 656.919,187.549 658.585,187.216 660.5,187.5C 663.258,188.291 665.758,188.958 668,189.5C 672.653,187.037 677.653,186.037 683,186.5C 688.426,186.541 693.259,187.541 697.5,189.5C 698.182,188.757 698.849,188.091 699.5,187.5 Z"/></g>
<g><path style="opacity:0.651" fill="#99bcdd" d="M 655.5,188.5 C 651.973,190.079 648.306,191.413 644.5,192.5C 645.167,191.833 645.833,191.167 646.5,190.5C 647.209,189.596 648.209,189.263 649.5,189.5C 651.5,189.167 653.5,188.833 655.5,188.5 Z"/></g>
<g><path style="opacity:0.278" fill="#d4e3f0" d="M 673.5,184.5 C 680.245,183.869 687.078,183.535 694,183.5C 694.5,184 695,184.5 695.5,185C 704.933,185.979 713.6,188.812 721.5,193.5C 714.187,191.282 706.854,189.282 699.5,187.5C 691.107,185.345 682.441,184.345 673.5,184.5 Z"/></g>
<g><path style="opacity:0.278" fill="#f1f6f9" d="M 646.5,190.5 C 645.833,191.167 645.167,191.833 644.5,192.5C 642.504,250.49 641.837,308.824 642.5,367.5C 641.169,308.999 641.169,250.332 642.5,191.5C 643.736,190.754 645.07,190.421 646.5,190.5 Z"/></g>
<g><path style="opacity:0.435" fill="#d5e4f0" d="M 721.5,193.5 C 739.999,201.666 753.999,214.666 763.5,232.5C 759.217,227.978 755.383,222.978 752,217.5C 748.281,214.903 745.114,211.737 742.5,208C 735.208,203.239 728.208,198.406 721.5,193.5 Z"/></g>
<g><path style="opacity:0.129" fill="#d5e3f0" d="M 763.5,232.5 C 771.063,245.384 775.563,259.384 777,274.5C 825.353,303.019 865.52,340.353 897.5,386.5C 892.801,381.637 888.301,376.637 884,371.5C 879.12,363.78 873.287,356.78 866.5,350.5C 865.92,348.251 864.587,346.585 862.5,345.5C 836.806,318.141 807.806,294.808 775.5,275.5C 774.541,267.417 773.041,259.417 771,251.5C 768.004,245.341 765.504,239.008 763.5,232.5 Z"/></g>
<g><path style="opacity:1" fill="#1c6eb6" d="M 386.5,309.5 C 382.127,308.657 377.793,307.657 373.5,306.5C 372.5,306.5 371.5,306.5 370.5,306.5C 361.146,303.879 351.479,302.545 341.5,302.5C 338.5,302.5 335.5,302.5 332.5,302.5C 326.448,301.313 320.448,301.313 314.5,302.5C 314.167,302.5 313.833,302.5 313.5,302.5C 310.5,302.5 307.5,302.5 304.5,302.5C 304.75,301.078 305.583,300.078 307,299.5C 319.99,300.187 333.157,300.187 346.5,299.5C 347.478,299.977 348.311,300.643 349,301.5C 349.333,301.167 349.667,300.833 350,300.5C 353.39,301.538 356.89,302.205 360.5,302.5C 362.926,302.596 365.093,301.93 367,300.5C 367.483,301.448 367.649,302.448 367.5,303.5C 374.689,304.619 381.689,306.452 388.5,309C 387.906,309.464 387.239,309.631 386.5,309.5 Z"/></g>
<g><path style="opacity:1" fill="#fdfefe" d="M 313.5,302.5 C 313.833,302.5 314.167,302.5 314.5,302.5C 320.5,303.833 326.5,303.833 332.5,302.5C 335.5,302.5 338.5,302.5 341.5,302.5C 350.998,304.064 360.665,305.397 370.5,306.5C 371.5,306.5 372.5,306.5 373.5,306.5C 373.611,307.117 373.944,307.617 374.5,308C 378.447,309.154 382.447,309.987 386.5,310.5C 387.167,310.5 387.833,310.5 388.5,310.5C 389.287,312.104 390.62,312.771 392.5,312.5C 393.635,314.213 395.302,314.88 397.5,314.5C 397.5,340.167 397.5,365.833 397.5,391.5C 395.483,390.471 393.483,389.471 391.5,388.5C 389.716,388.107 388.05,387.441 386.5,386.5C 385.089,384.461 383.089,383.461 380.5,383.5C 377.815,381.741 374.815,380.741 371.5,380.5C 369.383,378.345 366.716,377.345 363.5,377.5C 356.934,375.837 350.267,374.171 343.5,372.5C 332.534,370.549 321.534,370.216 310.5,371.5C 304.836,371.961 299.503,373.294 294.5,375.5C 292.486,375.392 290.82,376.058 289.5,377.5C 286.299,378.379 283.632,380.045 281.5,382.5C 278.833,383.167 277.167,384.833 276.5,387.5C 274.1,389.296 272.433,391.63 271.5,394.5C 270.073,396.148 269.24,398.148 269,400.5C 268.186,405.02 268.353,409.354 269.5,413.5C 270.247,416.899 271.247,420.233 272.5,423.5C 273.435,425.861 274.768,428.028 276.5,430C 282.128,434.811 288.128,438.977 294.5,442.5C 298.678,446.426 303.678,449.093 309.5,450.5C 311.297,451.73 313.297,452.396 315.5,452.5C 322.082,455.361 328.749,458.028 335.5,460.5C 335.833,460.5 336.167,460.5 336.5,460.5C 336.973,461.906 337.973,462.573 339.5,462.5C 340.167,462.5 340.833,462.5 341.5,462.5C 342.343,464.173 343.676,465.34 345.5,466C 348.521,466.849 351.521,467.683 354.5,468.5C 355.605,469.6 356.938,470.267 358.5,470.5C 362.74,474.455 367.74,477.122 373.5,478.5C 374.3,480.741 375.966,481.741 378.5,481.5C 378.833,481.5 379.167,481.5 379.5,481.5C 381.83,483.814 384.496,485.814 387.5,487.5C 388.035,489.446 389.368,490.446 391.5,490.5C 396.091,495.758 401.091,500.758 406.5,505.5C 409.861,507.895 412.528,510.895 414.5,514.5C 414.427,516.027 415.094,517.027 416.5,517.5C 419.262,520.686 421.262,524.353 422.5,528.5C 422.179,531.577 423.179,533.91 425.5,535.5C 425.971,537.579 426.637,539.579 427.5,541.5C 427.952,545.163 428.452,548.83 429,552.5C 429.278,553.416 429.778,554.082 430.5,554.5C 431.201,561.067 431.868,567.733 432.5,574.5C 431.642,578.673 430.976,583.007 430.5,587.5C 429.062,594.021 427.729,600.688 426.5,607.5C 425.762,611.715 424.428,615.715 422.5,619.5C 420.326,622.515 418.659,625.849 417.5,629.5C 416.925,631.411 415.925,633.078 414.5,634.5C 411.659,638.593 408.659,642.593 405.5,646.5C 405.167,647.5 404.5,648.167 403.5,648.5C 400.833,650.5 398.5,652.833 396.5,655.5C 387.641,663.019 377.974,669.352 367.5,674.5C 363.111,675.403 359.111,677.069 355.5,679.5C 354.713,681.104 353.38,681.771 351.5,681.5C 349.214,681.595 347.214,682.262 345.5,683.5C 341.5,684.167 337.5,684.833 333.5,685.5C 328.188,686.395 322.855,687.229 317.5,688C 316.584,688.278 315.918,688.778 315.5,689.5C 301.668,689.954 288.001,690.621 274.5,691.5C 274.167,691.5 273.833,691.5 273.5,691.5C 263.727,689.518 253.727,688.185 243.5,687.5C 243.167,687.5 242.833,687.5 242.5,687.5C 238.485,685.627 234.151,684.627 229.5,684.5C 227.901,684.768 226.568,684.434 225.5,683.5C 222.146,681.742 218.479,680.742 214.5,680.5C 212.299,679.434 209.965,678.767 207.5,678.5C 205.288,675.642 202.288,674.309 198.5,674.5C 197.842,647.812 198.509,621.479 200.5,595.5C 202.593,597.261 204.926,598.594 207.5,599.5C 210.914,602.54 214.914,604.54 219.5,605.5C 219.833,605.5 220.167,605.5 220.5,605.5C 227.835,609.983 235.835,612.983 244.5,614.5C 246.265,615.461 248.265,615.795 250.5,615.5C 254.11,617.574 258.11,618.741 262.5,619C 277.795,621.696 293.128,622.029 308.5,620C 313.843,619.253 318.843,617.753 323.5,615.5C 326.032,614.404 328.365,613.071 330.5,611.5C 334.116,609.221 337.449,606.555 340.5,603.5C 341.906,603.027 342.573,602.027 342.5,600.5C 343.906,600.027 344.573,599.027 344.5,597.5C 346.98,593.194 348.314,588.527 348.5,583.5C 348.5,579.833 348.5,576.167 348.5,572.5C 347.977,569.11 347.143,565.777 346,562.5C 343.752,559.672 341.752,556.672 340,553.5C 339.184,552.177 338.017,551.511 336.5,551.5C 336.5,549.5 335.5,548.5 333.5,548.5C 331.704,546.1 329.37,544.433 326.5,543.5C 324.584,541.438 322.251,540.104 319.5,539.5C 318.089,537.461 316.089,536.461 313.5,536.5C 309.822,535.491 306.489,533.657 303.5,531C 299.668,530.11 296.001,528.944 292.5,527.5C 292.167,527.5 291.833,527.5 291.5,527.5C 284.764,524.472 277.764,521.805 270.5,519.5C 269.035,518.263 267.368,517.263 265.5,516.5C 263.824,514.166 261.491,513.166 258.5,513.5C 257.393,511.031 255.393,510.031 252.5,510.5C 250.664,508.412 248.331,507.079 245.5,506.5C 243.584,504.438 241.251,503.104 238.5,502.5C 236.733,500.11 234.4,498.443 231.5,497.5C 231.027,496.094 230.027,495.427 228.5,495.5C 228.5,494.833 228.167,494.5 227.5,494.5C 227.027,493.094 226.027,492.427 224.5,492.5C 223.694,491.272 222.694,490.272 221.5,489.5C 220.089,487.086 218.089,485.419 215.5,484.5C 214.833,483.167 213.833,482.167 212.5,481.5C 211.581,478.911 209.914,476.911 207.5,475.5C 207.5,474.833 207.167,474.5 206.5,474.5C 206.446,472.368 205.446,471.035 203.5,470.5C 201.71,468.728 200.377,466.728 199.5,464.5C 196.546,459.588 193.879,454.588 191.5,449.5C 191.011,448.005 190.345,446.671 189.5,445.5C 189.063,439.688 187.897,434.022 186,428.5C 185.501,422.843 185.334,417.176 185.5,411.5C 187.177,405.416 187.844,399.082 187.5,392.5C 189.139,387.95 190.472,383.283 191.5,378.5C 192.448,375.86 193.448,373.193 194.5,370.5C 196.969,369.393 197.969,367.393 197.5,364.5C 201.137,359.188 204.804,353.854 208.5,348.5C 210.914,347.089 212.581,345.089 213.5,342.5C 214.167,342.5 214.5,342.167 214.5,341.5C 216.816,340.578 218.483,338.911 219.5,336.5C 223.02,335.647 225.687,333.647 227.5,330.5C 232.375,325.628 238.041,321.962 244.5,319.5C 250.367,317.177 256.367,315.01 262.5,313C 263.381,312.292 264.047,311.458 264.5,310.5C 264.833,310.5 265.167,310.5 265.5,310.5C 268.152,310.59 270.485,309.924 272.5,308.5C 276.761,308.102 280.761,307.102 284.5,305.5C 288.824,305.073 293.158,304.739 297.5,304.5C 303.021,304.218 308.354,303.551 313.5,302.5 Z"/></g>
<g><path style="opacity:1" fill="#bdddea" d="M 332.5,302.5 C 326.5,303.833 320.5,303.833 314.5,302.5C 320.448,301.313 326.448,301.313 332.5,302.5 Z"/></g>
<g><path style="opacity:1" fill="#70aace" d="M 341.5,302.5 C 351.479,302.545 361.146,303.879 370.5,306.5C 360.665,305.397 350.998,304.064 341.5,302.5 Z"/></g>
<g><path style="opacity:1" fill="#bcddea" d="M 299.5,302.5 C 301.167,302.5 302.833,302.5 304.5,302.5C 307.5,302.5 310.5,302.5 313.5,302.5C 308.354,303.551 303.021,304.218 297.5,304.5C 298.167,303.833 298.833,303.167 299.5,302.5 Z"/></g>
<g><path style="opacity:1" fill="#79b0d2" d="M 299.5,302.5 C 298.833,303.167 298.167,303.833 297.5,304.5C 293.158,304.739 288.824,305.073 284.5,305.5C 289.288,304.047 294.288,303.047 299.5,302.5 Z"/></g>
<g><path style="opacity:1" fill="#82b6d5" d="M 284.5,305.5 C 280.761,307.102 276.761,308.102 272.5,308.5C 276.163,306.584 280.163,305.584 284.5,305.5 Z"/></g>
<g><path style="opacity:1" fill="#76aed1" d="M 373.5,306.5 C 377.793,307.657 382.127,308.657 386.5,309.5C 386.5,309.833 386.5,310.167 386.5,310.5C 382.447,309.987 378.447,309.154 374.5,308C 373.944,307.617 373.611,307.117 373.5,306.5 Z"/></g>
<g><path style="opacity:1" fill="#81b5d5" d="M 272.5,308.5 C 270.485,309.924 268.152,310.59 265.5,310.5C 267.515,309.076 269.848,308.41 272.5,308.5 Z"/></g>
<g><path style="opacity:1" fill="#79afd1" d="M 388.5,310.5 C 389.167,310.5 389.833,310.5 390.5,310.5C 391.167,311.167 391.833,311.833 392.5,312.5C 390.62,312.771 389.287,312.104 388.5,310.5 Z"/></g>
<g><path style="opacity:1" fill="#99c4dd" d="M 264.5,310.5 C 264.047,311.458 263.381,312.292 262.5,313C 256.367,315.01 250.367,317.177 244.5,319.5C 250.624,315.441 257.29,312.441 264.5,310.5 Z"/></g>
<g><path style="opacity:1" fill="#cbe6ef" d="M 392.5,312.5 C 394.5,312.833 396.5,313.167 398.5,313.5C 398.5,339.5 398.5,365.5 398.5,391.5C 398.167,391.5 397.833,391.5 397.5,391.5C 397.5,365.833 397.5,340.167 397.5,314.5C 395.302,314.88 393.635,314.213 392.5,312.5 Z"/></g>
<g><path style="opacity:0.996" fill="#2e77b7" d="M 398.5,391.5 C 398.5,365.5 398.5,339.5 398.5,313.5C 396.5,313.167 394.5,312.833 392.5,312.5C 391.833,311.833 391.167,311.167 390.5,310.5C 390.56,309.957 390.893,309.624 391.5,309.5C 394.543,310.894 397.376,312.561 400,314.5C 400.667,335.167 400.667,355.833 400,376.5C 399.826,381.684 399.326,386.684 398.5,391.5 Z"/></g>
<g><path style="opacity:0.129" fill="#deeaf3" d="M 775.5,327.5 C 776.167,327.5 776.833,327.5 777.5,327.5C 779.806,329.139 781.806,331.139 783.5,333.5C 780.398,331.963 777.732,329.963 775.5,327.5 Z"/></g>
<g><path style="opacity:0.996" fill="#397fbf" d="M 777.5,327.5 C 781.615,327.62 784.281,329.62 785.5,333.5C 784.833,333.5 784.167,333.5 783.5,333.5C 781.806,331.139 779.806,329.139 777.5,327.5 Z"/></g>
<g><path style="opacity:1" fill="#a3cce1" d="M 227.5,330.5 C 225.687,333.647 223.02,335.647 219.5,336.5C 219.833,335.833 220.167,335.167 220.5,334.5C 222.833,333.167 225.167,331.833 227.5,330.5 Z"/></g>
<g><path style="opacity:0.996" fill="#3d7eb9" d="M 220.5,334.5 C 220.167,335.167 219.833,335.833 219.5,336.5C 218.483,338.911 216.816,340.578 214.5,341.5C 214.729,339.567 215.562,337.9 217,336.5C 217.816,335.177 218.983,334.511 220.5,334.5 Z"/></g>
<g><path style="opacity:0.278" fill="#d6e4f1" d="M 775.5,327.5 C 772.311,326.486 769.478,324.82 767,322.5C 763.346,330.19 758.513,336.857 752.5,342.5C 756.851,335.641 761.184,328.808 765.5,322C 769.478,322.492 772.812,324.326 775.5,327.5 Z"/></g>
<g><path style="opacity:0.278" fill="#e5eef5" d="M 783.5,333.5 C 784.167,333.5 784.833,333.5 785.5,333.5C 786.789,334.637 787.789,335.97 788.5,337.5C 786.246,336.876 784.579,335.543 783.5,333.5 Z"/></g>
<g><path style="opacity:0.278" fill="#e6eff6" d="M 788.5,337.5 C 790.795,338.136 792.461,339.469 793.5,341.5C 791.246,340.876 789.579,339.543 788.5,337.5 Z"/></g>
<g><path style="opacity:0.435" fill="#e0ebf4" d="M 793.5,341.5 C 796.674,342.01 799.008,343.677 800.5,346.5C 797.604,345.602 795.271,343.935 793.5,341.5 Z"/></g>
<g><path style="opacity:1" fill="#80b4d4" d="M 213.5,342.5 C 212.581,345.089 210.914,347.089 208.5,348.5C 209.419,345.911 211.086,343.911 213.5,342.5 Z"/></g>
<g><path style="opacity:0.914" fill="#4c91cd" d="M 862.5,345.5 C 864.587,346.585 865.92,348.251 866.5,350.5C 864.413,349.415 863.08,347.749 862.5,345.5 Z"/></g>
<g><path style="opacity:0.129" fill="#dce8f3" d="M 752.5,342.5 C 750.5,347.167 747.167,350.5 742.5,352.5C 745.403,348.651 748.737,345.317 752.5,342.5 Z"/></g>
<g><path style="opacity:0.278" fill="#e2ecf4" d="M 742.5,352.5 C 741.871,354.997 740.204,356.33 737.5,356.5C 738.579,354.457 740.246,353.124 742.5,352.5 Z"/></g>
<g><path style="opacity:0.129" fill="#d8e5f1" d="M 736.5,357.5 C 731.699,362.771 725.366,366.438 717.5,368.5C 717.953,367.542 718.619,366.708 719.5,366C 725.247,363.217 730.914,360.384 736.5,357.5 Z"/></g>
<g><path style="opacity:0.435" fill="#dae7f2" d="M 800.5,346.5 C 813.443,356.442 825.109,367.775 835.5,380.5C 823.827,369.161 812.161,357.827 800.5,346.5 Z"/></g>
<g><path style="opacity:1" fill="#aad0e3" d="M 197.5,364.5 C 197.969,367.393 196.969,369.393 194.5,370.5C 194.992,368.181 195.992,366.181 197.5,364.5 Z"/></g>
<g><path style="opacity:1" fill="#bfdfeb" d="M 310.5,371.5 C 321.534,370.216 332.534,370.549 343.5,372.5C 341.167,372.5 338.833,372.5 336.5,372.5C 333.018,372.172 329.685,372.172 326.5,372.5C 321.36,371.512 316.026,371.179 310.5,371.5 Z"/></g>
<g><path style="opacity:0.996" fill="#1269af" d="M 336.5,372.5 C 336.5,373.167 336.833,373.5 337.5,373.5C 327.897,374.059 318.23,374.059 308.5,373.5C 314.31,372.51 320.31,372.177 326.5,372.5C 329.685,372.172 333.018,372.172 336.5,372.5 Z"/></g>
<g><path style="opacity:1" fill="#71aad0" d="M 336.5,372.5 C 338.833,372.5 341.167,372.5 343.5,372.5C 350.267,374.171 356.934,375.837 363.5,377.5C 354.954,375.57 346.288,374.237 337.5,373.5C 336.833,373.5 336.5,373.167 336.5,372.5 Z"/></g>
<g><path style="opacity:1" fill="#6da7cd" d="M 310.5,371.5 C 316.026,371.179 321.36,371.512 326.5,372.5C 320.31,372.177 314.31,372.51 308.5,373.5C 303.784,373.846 299.117,374.513 294.5,375.5C 299.503,373.294 304.836,371.961 310.5,371.5 Z"/></g>
<g><path style="opacity:0.278" fill="#dde9f3" d="M 642.5,367.5 C 667.311,376.47 692.311,376.803 717.5,368.5C 700.035,376.14 681.701,378.307 662.5,375C 658.833,373.833 655.167,372.667 651.5,371.5C 650.914,371.709 650.414,372.043 650,372.5C 647.174,371.093 644.674,369.426 642.5,367.5 Z"/></g>
<g><path style="opacity:1" fill="#76aed1" d="M 363.5,377.5 C 366.716,377.345 369.383,378.345 371.5,380.5C 368.603,379.871 365.936,378.871 363.5,377.5 Z"/></g>
<g><path style="opacity:1" fill="#6aa5cc" d="M 281.5,382.5 C 280.167,384.5 278.5,386.167 276.5,387.5C 277.167,384.833 278.833,383.167 281.5,382.5 Z"/></g>
<g><path style="opacity:1" fill="#7ab0d2" d="M 380.5,383.5 C 383.089,383.461 385.089,384.461 386.5,386.5C 384.181,386.008 382.181,385.008 380.5,383.5 Z"/></g>
<g><path style="opacity:0.129" fill="#e6eef6" d="M 837.5,382.5 C 839.641,384.122 841.308,386.122 842.5,388.5C 839.428,387.699 837.762,385.699 837.5,382.5 Z"/></g>
<g><path style="opacity:1" fill="#88b9d7" d="M 191.5,378.5 C 190.472,383.283 189.139,387.95 187.5,392.5C 187.61,387.378 188.944,382.712 191.5,378.5 Z"/></g>
<g><path style="opacity:1" fill="#206fb9" d="M 289.5,377.5 C 289.414,378.496 289.748,379.329 290.5,380C 288.105,380.681 285.772,381.515 283.5,382.5C 282.018,384.483 280.351,386.316 278.5,388C 279.167,388.333 279.833,388.667 280.5,389C 279.743,390.512 278.743,391.846 277.5,393C 277.833,393.333 278.167,393.667 278.5,394C 276.301,395.583 273.968,395.75 271.5,394.5C 272.433,391.63 274.1,389.296 276.5,387.5C 278.5,386.167 280.167,384.5 281.5,382.5C 283.632,380.045 286.299,378.379 289.5,377.5 Z"/></g>
<g><path style="opacity:0.996" fill="#397db8" d="M 391.5,388.5 C 393.483,389.471 395.483,390.471 397.5,391.5C 397.833,391.5 398.167,391.5 398.5,391.5C 398.157,393.225 397.157,393.725 395.5,393C 393.356,392.208 392.023,390.708 391.5,388.5 Z"/></g>
<g><path style="opacity:0.129" fill="#dde9f3" d="M 842.5,388.5 C 846.106,391.024 848.772,394.357 850.5,398.5C 847.364,395.571 844.697,392.238 842.5,388.5 Z"/></g>
<g><path style="opacity:1" fill="#98c5dd" d="M 187.5,392.5 C 187.844,399.082 187.177,405.416 185.5,411.5C 185.5,407.5 185.5,403.5 185.5,399.5C 186.065,397.048 186.732,394.715 187.5,392.5 Z"/></g>
<g><path style="opacity:1" fill="#62a0c9" d="M 271.5,394.5 C 269.898,400.717 269.232,407.051 269.5,413.5C 268.353,409.354 268.186,405.02 269,400.5C 269.24,398.148 270.073,396.148 271.5,394.5 Z"/></g>
<g><path style="opacity:0.129" fill="#d8e6f1" d="M 850.5,398.5 C 852.875,400.224 855.042,402.224 857,404.5C 859.59,409.747 862.923,414.414 867,418.5C 867.667,420.5 867.667,422.5 867,424.5C 864.55,425.642 862.05,426.642 859.5,427.5C 861.795,425.677 864.129,423.844 866.5,422C 861.323,414.002 855.99,406.169 850.5,398.5 Z"/></g>
<g><path style="opacity:0.278" fill="#d9e6f2" d="M 897.5,386.5 C 904.028,394.882 910.028,403.715 915.5,413C 923.332,414.281 931.332,415.948 939.5,418C 944.357,420.259 949.357,422.259 954.5,424C 955.731,425.405 957.064,426.571 958.5,427.5C 950.343,424.01 942.01,421.01 933.5,418.5C 928.48,416.591 923.147,415.591 917.5,415.5C 915.983,415.489 914.816,414.823 914,413.5C 912.159,409.817 909.826,406.484 907,403.5C 903.106,398.242 899.939,392.575 897.5,386.5 Z"/></g>
<g><path style="opacity:0.996" fill="#377fc1" d="M 917.5,415.5 C 923.147,415.591 928.48,416.591 933.5,418.5C 927.88,418.395 922.547,417.395 917.5,415.5 Z"/></g>
<g><path style="opacity:1" fill="#1b6eba" d="M 185.5,399.5 C 185.5,403.5 185.5,407.5 185.5,411.5C 185.334,417.176 185.501,422.843 186,428.5C 187.897,434.022 189.063,439.688 189.5,445.5C 188.986,442.959 187.819,440.292 186,437.5C 184.657,436.786 183.324,437.12 182,438.5C 179.968,435.577 180.302,432.911 183,430.5C 183.333,430.833 183.667,431.167 184,431.5C 183.516,422.154 183.349,412.82 183.5,403.5C 183.34,401.645 184.007,400.312 185.5,399.5 Z"/></g>
<g><path style="opacity:0.278" fill="#e0ebf4" d="M 958.5,427.5 C 970.096,433.764 979.429,442.431 986.5,453.5C 985.167,452.5 983.833,451.5 982.5,450.5C 981.92,448.251 980.587,446.585 978.5,445.5C 976.372,442.87 974.039,440.37 971.5,438C 967.81,434.825 963.81,432.158 959.5,430C 958.748,429.329 958.414,428.496 958.5,427.5 Z"/></g>
<g><path style="opacity:0.996" fill="#3479b7" d="M 272.5,423.5 C 273.675,423.281 274.675,423.614 275.5,424.5C 275.977,425.931 276.643,427.264 277.5,428.5C 282.167,432.167 286.833,435.833 291.5,439.5C 297.069,441.307 302.069,443.473 306.5,446C 307.598,446.77 307.598,447.603 306.5,448.5C 302.5,446.5 298.5,444.5 294.5,442.5C 288.128,438.977 282.128,434.811 276.5,430C 274.768,428.028 273.435,425.861 272.5,423.5 Z"/></g>
<g><path style="opacity:0.651" fill="#cadcec" d="M 859.5,427.5 C 849.957,434.699 840.957,442.699 832.5,451.5C 839.639,441.358 848.639,433.358 859.5,427.5 Z"/></g>
<g><path style="opacity:0.914" fill="#4c91cd" d="M 978.5,445.5 C 980.587,446.585 981.92,448.251 982.5,450.5C 980.413,449.415 979.08,447.749 978.5,445.5 Z"/></g>
<g><path style="opacity:1" fill="#c1e0ec" d="M 294.5,442.5 C 298.5,444.5 302.5,446.5 306.5,448.5C 307.391,449.11 308.391,449.443 309.5,449.5C 309.5,449.833 309.5,450.167 309.5,450.5C 303.678,449.093 298.678,446.426 294.5,442.5 Z"/></g>
<g><path style="opacity:1" fill="#67a4cb" d="M 309.5,450.5 C 309.5,450.167 309.5,449.833 309.5,449.5C 310.833,449.833 312.167,450.167 313.5,450.5C 314.167,451.167 314.833,451.833 315.5,452.5C 313.297,452.396 311.297,451.73 309.5,450.5 Z"/></g>
<g><path style="opacity:0.996" fill="#2873b4" d="M 335.5,460.5 C 328.749,458.028 322.082,455.361 315.5,452.5C 314.833,451.833 314.167,451.167 313.5,450.5C 318.581,451.513 323.581,453.513 328.5,456.5C 330.737,456.306 332.903,456.306 335,456.5C 336.768,457.682 336.935,459.015 335.5,460.5 Z"/></g>
<g><path style="opacity:0.278" fill="#ebf2f7" d="M 986.5,453.5 C 988.587,454.585 989.92,456.251 990.5,458.5C 989.833,458.167 989.167,457.833 988.5,457.5C 987.4,456.395 986.733,455.062 986.5,453.5 Z"/></g>
<g><path style="opacity:0.996" fill="#4988be" d="M 191.5,449.5 C 193.879,454.588 196.546,459.588 199.5,464.5C 195.043,460.594 192.377,455.594 191.5,449.5 Z"/></g>
<g><path style="opacity:0.804" fill="#99bddf" d="M 988.5,457.5 C 989.167,457.833 989.833,458.167 990.5,458.5C 991.674,459.514 992.34,460.847 992.5,462.5C 992.5,463.167 992.5,463.833 992.5,464.5C 990.784,462.435 989.451,460.102 988.5,457.5 Z"/></g>
<g><path style="opacity:1" fill="#81b5d5" d="M 336.5,460.5 C 338.027,460.427 339.027,461.094 339.5,462.5C 337.973,462.573 336.973,461.906 336.5,460.5 Z"/></g>
<g><path style="opacity:1" fill="#91c0da" d="M 341.5,462.5 C 346.25,463.743 350.584,465.743 354.5,468.5C 351.521,467.683 348.521,466.849 345.5,466C 343.676,465.34 342.343,464.173 341.5,462.5 Z"/></g>
<g><path style="opacity:0.278" fill="#e1ecf4" d="M 992.5,462.5 C 995.54,465.914 997.54,469.914 998.5,474.5C 996.511,471.193 994.511,467.86 992.5,464.5C 992.5,463.833 992.5,463.167 992.5,462.5 Z"/></g>
<g><path style="opacity:0.651" fill="#c3d8eb" d="M 832.5,451.5 C 828.079,459.884 823.746,468.218 819.5,476.5C 819.167,476.5 818.833,476.5 818.5,476.5C 819.882,472.53 821.382,468.53 823,464.5C 825.503,461.498 827.503,458.165 829,454.5C 830.039,453.29 831.206,452.29 832.5,451.5 Z"/></g>
<g><path style="opacity:1" fill="#8bbbd8" d="M 203.5,470.5 C 205.446,471.035 206.446,472.368 206.5,474.5C 205.026,473.564 204.026,472.23 203.5,470.5 Z"/></g>
<g><path style="opacity:1" fill="#73accf" d="M 207.5,475.5 C 209.914,476.911 211.581,478.911 212.5,481.5C 210.086,480.089 208.419,478.089 207.5,475.5 Z"/></g>
<g><path style="opacity:1" fill="#b1d4e6" d="M 358.5,470.5 C 363.655,472.911 368.655,475.577 373.5,478.5C 367.74,477.122 362.74,474.455 358.5,470.5 Z"/></g>
<g><path style="opacity:1" fill="#aad0e3" d="M 373.5,478.5 C 375.565,478.953 377.232,479.953 378.5,481.5C 375.966,481.741 374.3,480.741 373.5,478.5 Z"/></g>
<g><path style="opacity:0.129" fill="#e4edf5" d="M 998.5,474.5 C 999.921,477.294 1000.92,480.294 1001.5,483.5C 999.145,481.077 998.145,478.077 998.5,474.5 Z"/></g>
<g><path style="opacity:1" fill="#79b0d2" d="M 215.5,484.5 C 218.089,485.419 220.089,487.086 221.5,489.5C 220.833,489.5 220.167,489.5 219.5,489.5C 218.167,487.833 216.833,486.167 215.5,484.5 Z"/></g>
<g><path style="opacity:1" fill="#3b7ebf" d="M 818.5,476.5 C 818.833,476.5 819.167,476.5 819.5,476.5C 819.017,483.588 817.35,490.254 814.5,496.5C 815.824,489.863 817.158,483.196 818.5,476.5 Z"/></g>
<g><path style="opacity:0.996" fill="#2671b5" d="M 379.5,481.5 C 382.421,482.065 385.088,483.232 387.5,485C 387.167,485.333 386.833,485.667 386.5,486C 389.101,486.92 391.768,487.587 394.5,488C 393.419,489.711 393.752,491.211 395.5,492.5C 393.938,492.267 392.605,491.6 391.5,490.5C 390.564,489.026 389.23,488.026 387.5,487.5C 384.496,485.814 381.83,483.814 379.5,481.5 Z"/></g>
<g><path style="opacity:1" fill="#8bbbd8" d="M 387.5,487.5 C 389.23,488.026 390.564,489.026 391.5,490.5C 389.368,490.446 388.035,489.446 387.5,487.5 Z"/></g>
<g><path style="opacity:1" fill="#7db2d3" d="M 224.5,492.5 C 226.027,492.427 227.027,493.094 227.5,494.5C 225.973,494.573 224.973,493.906 224.5,492.5 Z"/></g>
<g><path style="opacity:0.435" fill="#d2e3f0" d="M 1001.5,483.5 C 1003.76,489.165 1004.76,495.165 1004.5,501.5C 1004.17,501.5 1003.83,501.5 1003.5,501.5C 1003.16,495.459 1002.49,489.459 1001.5,483.5 Z"/></g>
<g><path style="opacity:1" fill="#b5d8e7" d="M 391.5,490.5 C 392.605,491.6 393.938,492.267 395.5,492.5C 398.806,496.473 402.473,500.14 406.5,503.5C 406.5,504.167 406.5,504.833 406.5,505.5C 401.091,500.758 396.091,495.758 391.5,490.5 Z"/></g>
<g><path style="opacity:1" fill="#7db2d3" d="M 228.5,495.5 C 230.027,495.427 231.027,496.094 231.5,497.5C 229.973,497.573 228.973,496.906 228.5,495.5 Z"/></g>
<g><path style="opacity:1" fill="#216fba" d="M 219.5,489.5 C 220.167,489.5 220.833,489.5 221.5,489.5C 222.694,490.272 223.694,491.272 224.5,492.5C 224.973,493.906 225.973,494.573 227.5,494.5C 228.167,494.5 228.5,494.833 228.5,495.5C 228.973,496.906 229.973,497.573 231.5,497.5C 234.4,498.443 236.733,500.11 238.5,502.5C 237.009,502.901 235.342,503.068 233.5,503C 233.07,503.92 232.736,504.753 232.5,505.5C 231.868,502.97 230.868,500.637 229.5,498.5C 227.979,498.12 226.313,497.954 224.5,498C 225.622,496.387 225.122,495.22 223,494.5C 222.586,494.957 222.086,495.291 221.5,495.5C 220.705,493.505 220.039,491.505 219.5,489.5 Z"/></g>
<g><path style="opacity:0.278" fill="#d9e6f2" d="M 818.5,476.5 C 817.158,483.196 815.824,489.863 814.5,496.5C 811.389,524.809 818.722,549.809 836.5,571.5C 832.338,568.248 828.838,564.248 826,559.5C 810.98,532.894 808.48,505.227 818.5,476.5 Z"/></g>
<g><path style="opacity:1" fill="#7eb3d3" d="M 245.5,506.5 C 248.331,507.079 250.664,508.412 252.5,510.5C 249.669,509.921 247.336,508.588 245.5,506.5 Z"/></g>
<g><path style="opacity:1" fill="#aad0e3" d="M 252.5,510.5 C 255.393,510.031 257.393,511.031 258.5,513.5C 256.181,513.008 254.181,512.008 252.5,510.5 Z"/></g>
<g><path style="opacity:1" fill="#a8cfe3" d="M 258.5,513.5 C 261.491,513.166 263.824,514.166 265.5,516.5C 264.041,516.567 262.708,516.234 261.5,515.5C 260.29,515.068 259.29,514.401 258.5,513.5 Z"/></g>
<g><path style="opacity:0.996" fill="#2d76b5" d="M 261.5,515.5 C 262.708,516.234 264.041,516.567 265.5,516.5C 267.368,517.263 269.035,518.263 270.5,519.5C 266.343,520.343 263.343,519.009 261.5,515.5 Z"/></g>
<g><path style="opacity:1" fill="#7db2d3" d="M 414.5,514.5 C 415.906,514.973 416.573,515.973 416.5,517.5C 415.094,517.027 414.427,516.027 414.5,514.5 Z"/></g>
<g><path style="opacity:1" fill="#166cb8" d="M 406.5,503.5 C 409.298,504.706 411.465,506.706 413,509.5C 413.423,508.044 414.256,507.544 415.5,508C 418.114,510.068 418.781,512.568 417.5,515.5C 418.248,517.332 419.248,518.999 420.5,520.5C 422.026,518.342 423.526,518.675 425,521.5C 425.5,522.5 426,523.5 426.5,524.5C 425.167,524.5 423.833,524.5 422.5,524.5C 423.747,526.323 424.414,528.323 424.5,530.5C 423.833,529.833 423.167,529.167 422.5,528.5C 421.262,524.353 419.262,520.686 416.5,517.5C 416.573,515.973 415.906,514.973 414.5,514.5C 412.528,510.895 409.861,507.895 406.5,505.5C 406.5,504.833 406.5,504.167 406.5,503.5 Z"/></g>
<g><path style="opacity:0.996" fill="#4486c2" d="M 1003.5,501.5 C 1003.83,501.5 1004.17,501.5 1004.5,501.5C 1004.5,506.833 1004.5,512.167 1004.5,517.5C 1003.82,521.571 1002.82,525.571 1001.5,529.5C 1002.17,520.167 1002.83,510.833 1003.5,501.5 Z"/></g>
<g><path style="opacity:0.996" fill="#2c75b8" d="M 270.5,519.5 C 277.764,521.805 284.764,524.472 291.5,527.5C 289.533,527.261 287.699,527.594 286,528.5C 285.167,527.5 284.333,526.5 283.5,525.5C 282.914,525.709 282.414,526.043 282,526.5C 278.258,522.775 274.258,522.108 270,524.5C 269.308,523.975 268.808,523.308 268.5,522.5C 269.612,521.735 270.279,520.735 270.5,519.5 Z"/></g>
<g><path style="opacity:1" fill="#acd1e4" d="M 422.5,528.5 C 423.167,529.167 423.833,529.833 424.5,530.5C 424.629,532.216 424.962,533.883 425.5,535.5C 423.179,533.91 422.179,531.577 422.5,528.5 Z"/></g>
<g><path style="opacity:1" fill="#2672b8" d="M 292.5,527.5 C 296.001,528.944 299.668,530.11 303.5,531C 306.489,533.657 309.822,535.491 313.5,536.5C 314.833,537.5 316.167,538.5 317.5,539.5C 314.178,538.508 310.845,537.508 307.5,536.5C 306.106,536.621 304.772,536.954 303.5,537.5C 303.446,536.47 303.112,535.303 302.5,534C 298.472,532.788 295.138,530.621 292.5,527.5 Z"/></g>
<g><path style="opacity:1" fill="#85b8d6" d="M 313.5,536.5 C 316.089,536.461 318.089,537.461 319.5,539.5C 318.833,539.5 318.167,539.5 317.5,539.5C 316.167,538.5 314.833,537.5 313.5,536.5 Z"/></g>
<g><path style="opacity:0.996" fill="#4383bc" d="M 326.5,543.5 C 329.37,544.433 331.704,546.1 333.5,548.5C 332.577,549.303 331.577,549.47 330.5,549C 329.035,547.226 327.702,545.392 326.5,543.5 Z"/></g>
<g><path style="opacity:1" fill="#76aed1" d="M 333.5,548.5 C 335.5,548.5 336.5,549.5 336.5,551.5C 335.167,550.833 334.167,549.833 333.5,548.5 Z"/></g>
<g><path style="opacity:1" fill="#a0c9df" d="M 427.5,541.5 C 429.373,545.515 430.373,549.849 430.5,554.5C 429.778,554.082 429.278,553.416 429,552.5C 428.452,548.83 427.952,545.163 427.5,541.5 Z"/></g>
<g><path style="opacity:0.435" fill="#d4e3f0" d="M 1004.5,517.5 C 1004.17,529.498 1001.33,540.832 996,551.5C 993.971,555.58 991.471,559.246 988.5,562.5C 994.59,552.237 998.923,541.237 1001.5,529.5C 1002.82,525.571 1003.82,521.571 1004.5,517.5 Z"/></g>
<g><path style="opacity:0.996" fill="#3178b9" d="M 336.5,551.5 C 338.017,551.511 339.184,552.177 340,553.5C 341.752,556.672 343.752,559.672 346,562.5C 347.143,565.777 347.977,569.11 348.5,572.5C 347.778,572.082 347.278,571.416 347,570.5C 346.667,571.5 346.333,572.5 346,573.5C 345.915,569.529 344.915,565.862 343,562.5C 342.167,563.5 341.333,564.5 340.5,565.5C 340.167,565.167 339.833,564.833 339.5,564.5C 340.304,563.059 340.971,561.559 341.5,560C 340.294,556.865 338.627,554.031 336.5,551.5 Z"/></g>
<g><path style="opacity:0.129" fill="#ecf3f8" d="M 988.5,562.5 C 987.99,565.674 986.323,568.008 983.5,569.5C 984.786,566.883 986.453,564.55 988.5,562.5 Z"/></g>
<g><path style="opacity:0.435" fill="#dfebf4" d="M 836.5,571.5 C 842.894,577.899 849.561,583.899 856.5,589.5C 850.696,586.421 845.363,582.588 840.5,578C 838.266,576.362 836.933,574.195 836.5,571.5 Z"/></g>
<g><path style="opacity:1" fill="#73accf" d="M 432.5,574.5 C 432.816,580.75 432.15,586.75 430.5,592.5C 430.5,590.833 430.5,589.167 430.5,587.5C 430.976,583.007 431.642,578.673 432.5,574.5 Z"/></g>
<g><path style="opacity:1" fill="#1d6eba" d="M 348.5,583.5 C 348.314,588.527 346.98,593.194 344.5,597.5C 343.094,597.973 342.427,598.973 342.5,600.5C 341.833,600.833 341.167,601.167 340.5,601.5C 339.645,598.514 339.145,595.514 339,592.5C 340.875,591.377 343.042,591.377 345.5,592.5C 345.564,588.78 346.064,585.114 347,581.5C 347.278,582.416 347.778,583.082 348.5,583.5 Z"/></g>
<g><path style="opacity:0.129" fill="#e6eff6" d="M 856.5,589.5 C 860.439,591.13 864.106,593.13 867.5,595.5C 863.055,594.78 859.388,592.78 856.5,589.5 Z"/></g>
<g><path style="opacity:0.129" fill="#dce8f3" d="M 983.5,569.5 C 970.828,585.89 954.661,596.557 935,601.5C 928.617,603.367 922.117,604.867 915.5,606C 910.028,615.285 904.028,624.118 897.5,632.5C 898.212,630.072 899.212,627.739 900.5,625.5C 906.05,618.897 910.717,611.731 914.5,604C 942.015,600.861 965.015,589.361 983.5,569.5 Z"/></g>
<g><path style="opacity:1" fill="#91c1db" d="M 200.5,595.5 C 198.509,621.479 197.842,647.812 198.5,674.5C 202.288,674.309 205.288,675.642 207.5,678.5C 203.621,677.564 200.288,675.897 197.5,673.5C 197.5,670.833 197.5,668.167 197.5,665.5C 197.5,645.167 197.5,624.833 197.5,604.5C 197.637,601.442 197.304,598.275 196.5,595C 198.124,592.981 199.457,593.148 200.5,595.5 Z"/></g>
<g><path style="opacity:1" fill="#bedeeb" d="M 430.5,587.5 C 430.5,589.167 430.5,590.833 430.5,592.5C 429.912,597.808 428.579,602.808 426.5,607.5C 427.729,600.688 429.062,594.021 430.5,587.5 Z"/></g>
<g><path style="opacity:1" fill="#7db2d3" d="M 344.5,597.5 C 344.573,599.027 343.906,600.027 342.5,600.5C 342.427,598.973 343.094,597.973 344.5,597.5 Z"/></g>
<g><path style="opacity:1" fill="#7db2d3" d="M 342.5,600.5 C 342.573,602.027 341.906,603.027 340.5,603.5C 340.5,602.833 340.5,602.167 340.5,601.5C 341.167,601.167 341.833,600.833 342.5,600.5 Z"/></g>
<g><path style="opacity:0.651" fill="#d2e2ef" d="M 867.5,596.5 C 865.662,601.665 862.662,605.999 858.5,609.5C 861.117,604.886 864.117,600.553 867.5,596.5 Z"/></g>
<g><path style="opacity:1" fill="#72abcf" d="M 207.5,599.5 C 211.818,600.992 215.818,602.992 219.5,605.5C 214.914,604.54 210.914,602.54 207.5,599.5 Z"/></g>
<g><path style="opacity:0.996" fill="#3d7eba" d="M 244.5,614.5 C 235.835,612.983 227.835,609.983 220.5,605.5C 221.251,604.427 222.251,604.26 223.5,605C 227.677,607.059 232.01,608.726 236.5,610C 237.725,612.449 239.392,612.949 241.5,611.5C 243.197,611.899 244.863,612.399 246.5,613C 245.584,613.278 244.918,613.778 244.5,614.5 Z"/></g>
<g><path style="opacity:0.914" fill="#3284c8" d="M 197.5,604.5 C 197.5,624.833 197.5,645.167 197.5,665.5C 196.503,647.007 196.17,628.341 196.5,609.5C 195.294,607.563 195.627,605.896 197.5,604.5 Z"/></g>
<g><path style="opacity:0.996" fill="#357cb8" d="M 330.5,611.5 C 328.365,613.071 326.032,614.404 323.5,615.5C 323.167,615.5 322.833,615.5 322.5,615.5C 323.944,612.11 326.61,610.777 330.5,611.5 Z"/></g>
<g><path style="opacity:0.435" fill="#e1ecf5" d="M 858.5,609.5 C 857.99,612.674 856.323,615.008 853.5,616.5C 854.786,613.883 856.453,611.55 858.5,609.5 Z"/></g>
<g><path style="opacity:1" fill="#83b6d5" d="M 250.5,615.5 C 274.325,621.744 298.325,621.744 322.5,615.5C 322.833,615.5 323.167,615.5 323.5,615.5C 318.843,617.753 313.843,619.253 308.5,620C 293.128,622.029 277.795,621.696 262.5,619C 258.11,618.741 254.11,617.574 250.5,615.5 Z"/></g>
<g><path style="opacity:0.996" fill="#4987be" d="M 422.5,619.5 C 422.547,623.761 420.881,627.094 417.5,629.5C 418.659,625.849 420.326,622.515 422.5,619.5 Z"/></g>
<g><path style="opacity:1" fill="#2d75bb" d="M 414.5,634.5 C 413.293,638.896 411.793,643.23 410,647.5C 408.436,647.088 406.936,646.755 405.5,646.5C 408.659,642.593 411.659,638.593 414.5,634.5 Z"/></g>
<g><path style="opacity:0.278" fill="#d7e5f1" d="M 897.5,632.5 C 893.238,639.756 888.238,646.423 882.5,652.5C 884.715,647.453 887.549,642.786 891,638.5C 893.402,636.628 895.569,634.628 897.5,632.5 Z"/></g>
<g><path style="opacity:0.435" fill="#dce9f3" d="M 853.5,616.5 C 851.443,620.265 849.11,623.932 846.5,627.5C 839.803,634.195 833.47,641.195 827.5,648.5C 825.5,650.167 823.5,651.833 821.5,653.5C 832.173,641.161 842.84,628.828 853.5,616.5 Z"/></g>
<g><path style="opacity:0.129" fill="#e1ecf4" d="M 727.5,655.5 C 726.127,655.657 724.793,655.49 723.5,655C 720.938,652.587 717.938,650.92 714.5,650C 707.994,647.721 701.327,646.054 694.5,645C 682.373,643.998 670.373,644.498 658.5,646.5C 655.933,646.721 653.599,647.388 651.5,648.5C 650.5,648.5 649.5,648.5 648.5,648.5C 652.547,646.768 656.714,645.101 661,643.5C 661.414,643.957 661.914,644.291 662.5,644.5C 674.171,641.874 685.838,641.874 697.5,644.5C 698.086,644.291 698.586,643.957 699,643.5C 703.495,644.868 707.829,646.535 712,648.5C 712.414,648.043 712.914,647.709 713.5,647.5C 717.822,649.552 721.989,651.886 726,654.5C 727.107,653.288 727.607,653.621 727.5,655.5 Z"/></g>
<g><path style="opacity:0.804" fill="#72a8d5" d="M 658.5,646.5 C 656.562,648.163 654.228,648.829 651.5,648.5C 653.599,647.388 655.933,646.721 658.5,646.5 Z"/></g>
<g><path style="opacity:1" fill="#0e6ab6" d="M 196.5,609.5 C 196.17,628.341 196.503,647.007 197.5,665.5C 197.5,668.167 197.5,670.833 197.5,673.5C 195.78,672.249 195.447,670.749 196.5,669C 195.833,666.333 195.167,663.667 194.5,661C 195.594,644.162 195.594,627.495 194.5,611C 195.044,610.283 195.711,609.783 196.5,609.5 Z"/></g>
<g><path style="opacity:0.278" fill="#eff5f9" d="M 648.5,648.5 C 647.264,650.043 645.598,651.043 643.5,651.5C 642.333,709.164 642.167,766.83 643,824.5C 644.697,826.632 646.864,827.965 649.5,828.5C 649.5,828.833 649.5,829.167 649.5,829.5C 646.495,829.747 643.995,828.747 642,826.5C 641.167,767.83 641.333,709.164 642.5,650.5C 644.323,649.253 646.323,648.586 648.5,648.5 Z"/></g>
<g><path style="opacity:1" fill="#6ca7cd" d="M 403.5,648.5 C 402.925,650.411 401.925,652.078 400.5,653.5C 399.395,654.6 398.062,655.267 396.5,655.5C 398.5,652.833 400.833,650.5 403.5,648.5 Z"/></g>
<g><path style="opacity:0.435" fill="#e3eef6" d="M 821.5,653.5 C 820.167,655.5 818.5,657.167 816.5,658.5C 817.167,655.833 818.833,654.167 821.5,653.5 Z"/></g>
<g><path style="opacity:0.914" fill="#428aca" d="M 827.5,648.5 C 824.833,653.167 821.167,656.833 816.5,659.5C 816.5,659.167 816.5,658.833 816.5,658.5C 818.5,657.167 820.167,655.5 821.5,653.5C 823.5,651.833 825.5,650.167 827.5,648.5 Z"/></g>
<g><path style="opacity:0.129" fill="#dbe8f3" d="M 882.5,652.5 C 879.437,657.952 875.437,662.618 870.5,666.5C 870.5,665.833 870.5,665.167 870.5,664.5C 873.694,662.464 876.027,659.631 877.5,656C 879.279,654.86 880.946,653.693 882.5,652.5 Z"/></g>
<g><path style="opacity:0.996" fill="#357ab7" d="M 400.5,653.5 C 400.489,655.017 399.823,656.184 398.5,657C 394.614,658.965 391.281,661.631 388.5,665C 387.24,666.113 386.073,666.28 385,665.5C 383.878,667.624 382.378,669.457 380.5,671C 377.094,672.092 373.928,673.592 371,675.5C 370.014,674.829 368.847,674.829 367.5,675.5C 367.5,675.167 367.5,674.833 367.5,674.5C 377.974,669.352 387.641,663.019 396.5,655.5C 398.062,655.267 399.395,654.6 400.5,653.5 Z"/></g>
<g><path style="opacity:0.804" fill="#7faed7" d="M 870.5,664.5 C 870.5,665.167 870.5,665.833 870.5,666.5C 870.5,667.167 870.167,667.5 869.5,667.5C 868.833,667.833 868.167,668.167 867.5,668.5C 867.468,666.381 868.468,665.048 870.5,664.5 Z"/></g>
<g><path style="opacity:0.651" fill="#cbdded" d="M 727.5,655.5 C 742.115,663.115 753.448,674.115 761.5,688.5C 755.734,680.232 749.067,672.732 741.5,666C 740.5,665.667 739.5,665.333 738.5,665C 735.216,661.363 731.549,658.196 727.5,655.5 Z"/></g>
<g><path style="opacity:0.435" fill="#d2e2f0" d="M 816.5,658.5 C 816.5,658.833 816.5,659.167 816.5,659.5C 810.171,664.497 804.171,669.831 798.5,675.5C 796.013,677.504 793.347,679.171 790.5,680.5C 797.636,673.533 804.97,666.7 812.5,660C 813.745,659.209 815.078,658.709 816.5,658.5 Z"/></g>
<g><path style="opacity:1" fill="#bedeeb" d="M 367.5,674.5 C 367.5,674.833 367.5,675.167 367.5,675.5C 363.698,677.399 359.698,678.733 355.5,679.5C 359.111,677.069 363.111,675.403 367.5,674.5 Z"/></g>
<g><path style="opacity:1" fill="#79b0d2" d="M 214.5,680.5 C 218.479,680.742 222.146,681.742 225.5,683.5C 221.521,683.258 217.854,682.258 214.5,680.5 Z"/></g>
<g><path style="opacity:0.914" fill="#3384c8" d="M 13.5,681.5 C 14.4992,747.998 14.8325,814.665 14.5,881.5C 17.4815,881.182 19.8148,882.182 21.5,884.5C 19.4352,884.483 17.4352,884.15 15.5,883.5C 13.5088,816.381 12.8421,749.048 13.5,681.5 Z"/></g>
<g><path style="opacity:1" fill="#72abcf" d="M 351.5,681.5 C 349.898,683.074 347.898,683.741 345.5,683.5C 347.214,682.262 349.214,681.595 351.5,681.5 Z"/></g>
<g><path style="opacity:1" fill="#73abcf" d="M 229.5,684.5 C 234.151,684.627 238.485,685.627 242.5,687.5C 237.908,687.118 233.575,686.118 229.5,684.5 Z"/></g>
<g><path style="opacity:1" fill="#6aa6cc" d="M 345.5,683.5 C 341.884,684.987 338.217,686.32 334.5,687.5C 333.5,687.5 332.5,687.5 331.5,687.5C 332.167,686.833 332.833,686.167 333.5,685.5C 337.5,684.833 341.5,684.167 345.5,683.5 Z"/></g>
<g><path style="opacity:1" fill="#bcddea" d="M 333.5,685.5 C 332.833,686.167 332.167,686.833 331.5,687.5C 326.452,687.842 321.452,688.508 316.5,689.5C 316.167,689.5 315.833,689.5 315.5,689.5C 315.918,688.778 316.584,688.278 317.5,688C 322.855,687.229 328.188,686.395 333.5,685.5 Z"/></g>
<g><path style="opacity:1" fill="#6ea8cd" d="M 243.5,687.5 C 253.727,688.185 263.727,689.518 273.5,691.5C 271.833,691.5 270.167,691.5 268.5,691.5C 259.985,690.565 251.652,689.231 243.5,687.5 Z"/></g>
<g><path style="opacity:0.435" fill="#e1ecf5" d="M 790.5,680.5 C 789.71,681.794 788.71,682.961 787.5,684C 783.929,686.421 780.262,688.587 776.5,690.5C 780.454,686.188 785.12,682.855 790.5,680.5 Z"/></g>
<g><path style="opacity:1" fill="#71aacf" d="M 315.5,689.5 C 315.833,689.5 316.167,689.5 316.5,689.5C 314.031,690.317 311.365,690.817 308.5,691C 297.172,691.5 285.838,691.667 274.5,691.5C 288.001,690.621 301.668,689.954 315.5,689.5 Z"/></g>
<g><path style="opacity:1" fill="#0c6ab8" d="M 331.5,687.5 C 332.5,687.5 333.5,687.5 334.5,687.5C 329.117,690.939 323.617,692.273 318,691.5C 314.302,692.504 310.635,693.504 307,694.5C 297.684,694.184 288.017,694.184 278,694.5C 275.26,693.718 272.426,693.218 269.5,693C 268.944,692.617 268.611,692.117 268.5,691.5C 270.167,691.5 271.833,691.5 273.5,691.5C 273.833,691.5 274.167,691.5 274.5,691.5C 285.838,691.667 297.172,691.5 308.5,691C 311.365,690.817 314.031,690.317 316.5,689.5C 321.452,688.508 326.452,687.842 331.5,687.5 Z"/></g>
<g><path style="opacity:0.129" fill="#d3e2ef" d="M 761.5,688.5 C 763.502,691.001 765.669,693.335 768,695.5C 770.626,693.439 773.459,691.772 776.5,690.5C 773.787,693.37 770.62,695.704 767,697.5C 763.637,695.442 761.804,692.442 761.5,688.5 Z"/></g>
<g><path style="opacity:0.129" fill="#dae7f2" d="M 869.5,667.5 C 851.112,689.504 830.112,708.504 806.5,724.5C 808.564,721.954 810.897,719.621 813.5,717.5C 822.581,711.259 831.248,704.426 839.5,697C 849.036,687.632 858.369,678.132 867.5,668.5C 868.167,668.167 868.833,667.833 869.5,667.5 Z"/></g>
<g><path style="opacity:1" fill="#3f83c5" d="M 813.5,717.5 C 810.897,719.621 808.564,721.954 806.5,724.5C 805.5,724.5 804.5,724.5 803.5,724.5C 805.464,722.873 806.797,720.873 807.5,718.5C 809.5,718.167 811.5,717.833 813.5,717.5 Z"/></g>
<g><path style="opacity:0.278" fill="#d5e4f0" d="M 803.5,724.5 C 804.5,724.5 805.5,724.5 806.5,724.5C 797.913,731.138 788.913,737.305 779.5,743C 778.552,743.483 777.552,743.649 776.5,743.5C 774.84,767.519 765.84,788.186 749.5,805.5C 749.5,804.833 749.5,804.167 749.5,803.5C 764.863,787.101 773.363,767.101 775,743.5C 785.066,737.738 794.566,731.405 803.5,724.5 Z"/></g>
<g><path style="opacity:0.804" fill="#5999d0" d="M 749.5,803.5 C 749.5,804.167 749.5,804.833 749.5,805.5C 749.167,805.5 748.833,805.5 748.5,805.5C 747.078,806.925 745.411,807.925 743.5,808.5C 744.911,806.086 746.911,804.419 749.5,803.5 Z"/></g>
<g><path style="opacity:0.129" fill="#d1e1f0" d="M 748.5,805.5 C 746.821,808.195 744.821,810.695 742.5,813C 740.922,814.094 739.255,814.928 737.5,815.5C 737.833,814.833 738.167,814.167 738.5,813.5C 739.939,811.64 741.605,809.973 743.5,808.5C 745.411,807.925 747.078,806.925 748.5,805.5 Z"/></g>
<g><path style="opacity:0.651" fill="#7fadd6" d="M 738.5,813.5 C 738.167,814.167 737.833,814.833 737.5,815.5C 736.833,815.5 736.167,815.5 735.5,815.5C 735.973,814.094 736.973,813.427 738.5,813.5 Z"/></g>
<g><path style="opacity:0.435" fill="#d2e2f0" d="M 735.5,815.5 C 736.167,815.5 736.833,815.5 737.5,815.5C 736.71,816.794 735.71,817.961 734.5,819C 730.256,821.428 725.922,823.594 721.5,825.5C 721.414,824.504 721.748,823.671 722.5,823C 727.223,820.978 731.557,818.478 735.5,815.5 Z"/></g>
<g><path style="opacity:0.278" fill="#d2e1f0" d="M 721.5,825.5 C 698.053,837.049 674.053,838.382 649.5,829.5C 649.5,829.167 649.5,828.833 649.5,828.5C 667.195,833.845 685.195,834.679 703.5,831C 709.278,828.463 715.278,826.63 721.5,825.5 Z"/></g>
<g><path style="opacity:0.278" fill="#f1f6fa" d="M 12.5,883.5 C 13.5,883.5 14.5,883.5 15.5,883.5C 17.4352,884.15 19.4352,884.483 21.5,884.5C 21.8333,884.5 22.1667,884.5 22.5,884.5C 22.5,884.833 22.5,885.167 22.5,885.5C 18.8405,885.841 15.5072,885.175 12.5,883.5 Z"/></g>
<g><path style="opacity:0.804" fill="#91b9dd" d="M 22.5,884.5 C 26.0781,884.549 29.4115,885.215 32.5,886.5C 30.5,886.5 28.5,886.5 26.5,886.5C 24.901,886.768 23.5676,886.434 22.5,885.5C 22.5,885.167 22.5,884.833 22.5,884.5 Z"/></g>
<g><path style="opacity:0.129" fill="#e3edf5" d="M 26.5,886.5 C 28.5,886.5 30.5,886.5 32.5,886.5C 42.9721,889.318 53.6387,891.318 64.5,892.5C 65.1667,893.167 65.8333,893.833 66.5,894.5C 64.1286,894.128 61.6286,894.128 59,894.5C 58.5,894 58,893.5 57.5,893C 46.5912,891.456 36.2579,889.289 26.5,886.5 Z"/></g>
<g><path style="opacity:0.804" fill="#659fd2" d="M 64.5,892.5 C 67.0673,892.721 69.4006,893.388 71.5,894.5C 69.8333,894.5 68.1667,894.5 66.5,894.5C 65.8333,893.833 65.1667,893.167 64.5,892.5 Z"/></g>
<g><path style="opacity:1" fill="#337ac2" d="M 101.5,900.5 C 93.0874,898.712 84.7541,897.046 76.5,895.5C 81.0302,895.403 85.5302,895.736 90,896.5C 91.6581,896.325 92.9914,895.658 94,894.5C 94.3742,895.416 94.8742,896.25 95.5,897C 97.7274,897.941 99.7274,899.108 101.5,900.5 Z"/></g>
<g><path style="opacity:0.129" fill="#dce8f3" d="M 66.5,894.5 C 68.1667,894.5 69.8333,894.5 71.5,894.5C 73.4147,894.216 75.0813,894.549 76.5,895.5C 84.7541,897.046 93.0874,898.712 101.5,900.5C 105.342,902.002 109.342,902.668 113.5,902.5C 115.438,904.163 117.772,904.829 120.5,904.5C 139.562,908.614 158.728,912.28 178,915.5C 179.376,915.684 180.209,916.351 180.5,917.5C 173.689,916.966 167.356,915.8 161.5,914C 145.014,910.501 128.514,907.001 112,903.5C 110.417,903.493 108.751,903.826 107,904.5C 100.722,902.289 94.3885,900.289 88,898.5C 87.6667,898.833 87.3333,899.167 87,899.5C 80.0116,898.092 73.1783,896.425 66.5,894.5 Z"/></g>
<g><path style="opacity:0.804" fill="#69a1d2" d="M 113.5,902.5 C 116.152,902.41 118.485,903.076 120.5,904.5C 117.772,904.829 115.438,904.163 113.5,902.5 Z"/></g>
<g><path style="opacity:0.278" fill="#e3edf5" d="M 180.5,917.5 C 187.342,917.547 194.009,918.547 200.5,920.5C 201.833,921.167 203.167,921.833 204.5,922.5C 195.964,921.098 187.964,919.431 180.5,917.5 Z"/></g>
<g><path style="opacity:0.804" fill="#72a8d5" d="M 200.5,920.5 C 203.781,920.42 206.781,921.087 209.5,922.5C 207.833,922.5 206.167,922.5 204.5,922.5C 203.167,921.833 201.833,921.167 200.5,920.5 Z"/></g>
<g><path style="opacity:0.129" fill="#ecf3f8" d="M 204.5,922.5 C 206.167,922.5 207.833,922.5 209.5,922.5C 213.167,923.167 216.833,923.833 220.5,924.5C 221.833,925.167 223.167,925.833 224.5,926.5C 217.59,925.767 210.924,924.433 204.5,922.5 Z"/></g>
<g><path style="opacity:0.804" fill="#77aad5" d="M 220.5,924.5 C 223.781,924.42 226.781,925.087 229.5,926.5C 227.833,926.5 226.167,926.5 224.5,926.5C 223.167,925.833 221.833,925.167 220.5,924.5 Z"/></g>
<g><path style="opacity:0.278" fill="#d6e5f1" d="M 224.5,926.5 C 226.167,926.5 227.833,926.5 229.5,926.5C 232.01,926.054 234.01,926.72 235.5,928.5C 231.575,928.57 227.909,927.903 224.5,926.5 Z"/></g>
<g><path style="opacity:0.278" fill="#deeaf3" d="M 244.5,929.5 C 246.167,930.167 247.833,930.833 249.5,931.5C 244.561,930.649 240.227,929.982 236.5,929.5C 239.167,928.167 241.833,928.167 244.5,929.5 Z"/></g>
<g><path style="opacity:0.996" fill="#4887c4" d="M 244.5,929.5 C 249.215,929.506 253.882,930.006 258.5,931C 259.056,931.383 259.389,931.883 259.5,932.5C 256.193,931.949 252.86,931.616 249.5,931.5C 247.833,930.833 246.167,930.167 244.5,929.5 Z"/></g>
<g><path style="opacity:0.278" fill="#e8f0f7" d="M 249.5,931.5 C 252.86,931.616 256.193,931.949 259.5,932.5C 259.833,932.5 260.167,932.5 260.5,932.5C 262.167,933.167 263.833,933.833 265.5,934.5C 264.784,934.783 263.951,935.116 263,935.5C 258.424,934.109 253.924,932.776 249.5,931.5 Z"/></g>
<g><path style="opacity:0.651" fill="#83afd7" d="M 260.5,932.5 C 263.829,932.215 266.829,932.882 269.5,934.5C 268.5,934.5 267.5,934.5 266.5,934.5C 266.167,934.5 265.833,934.5 265.5,934.5C 263.833,933.833 262.167,933.167 260.5,932.5 Z"/></g>
<g><path style="opacity:1" fill="#4381c4" d="M 284.5,937.5 C 280.865,936.886 277.198,936.552 273.5,936.5C 273.5,936.167 273.5,935.833 273.5,935.5C 276.466,935.89 279.132,935.223 281.5,933.5C 282.934,934.588 283.934,935.922 284.5,937.5 Z"/></g>
<g><path style="opacity:0.129" fill="#e5eef5" d="M 266.5,934.5 C 267.5,934.5 268.5,934.5 269.5,934.5C 270.959,934.433 272.292,934.766 273.5,935.5C 273.5,935.833 273.5,936.167 273.5,936.5C 270.772,936.829 268.438,936.163 266.5,934.5 Z"/></g>
<g><path style="opacity:0.278" fill="#ecf4f8" d="M 273.5,936.5 C 277.198,936.552 280.865,936.886 284.5,937.5C 284.5,937.833 284.5,938.167 284.5,938.5C 280.613,938.354 276.946,937.687 273.5,936.5 Z"/></g>
<g><path style="opacity:0.129" fill="#e4edf5" d="M 284.5,938.5 C 287.187,938.336 289.854,938.503 292.5,939C 296.459,939.763 300.126,940.93 303.5,942.5C 298.602,942.521 293.935,941.521 289.5,939.5C 287.711,940.247 286.044,939.914 284.5,938.5 Z"/></g>
<g><path style="opacity:0.804" fill="#619dd1" d="M 340.5,948.5 C 343.495,948.294 346.162,948.96 348.5,950.5C 345.505,950.706 342.838,950.04 340.5,948.5 Z"/></g>
<g><path style="opacity:0.278" fill="#d7e5f1" d="M 303.5,942.5 C 315.947,943.873 328.28,945.873 340.5,948.5C 342.838,950.04 345.505,950.706 348.5,950.5C 360.618,952.85 372.618,955.183 384.5,957.5C 388.889,959.246 393.556,960.246 398.5,960.5C 406.411,962.348 414.411,964.014 422.5,965.5C 425.647,966.046 428.647,967.046 431.5,968.5C 388.392,960.679 345.725,952.012 303.5,942.5 Z"/></g>
<g><path style="opacity:0.996" fill="#4c8cc7" d="M 384.5,957.5 C 388.853,957.765 393.187,958.265 397.5,959C 398.056,959.383 398.389,959.883 398.5,960.5C 393.556,960.246 388.889,959.246 384.5,957.5 Z"/></g>
<g><path style="opacity:0.996" fill="#4284c0" d="M 422.5,965.5 C 427.894,965.124 432.894,966.124 437.5,968.5C 435.5,968.5 433.5,968.5 431.5,968.5C 428.647,967.046 425.647,966.046 422.5,965.5 Z"/></g>
<g><path style="opacity:0.278" fill="#e1ecf4" d="M 431.5,968.5 C 433.5,968.5 435.5,968.5 437.5,968.5C 442.357,969.138 447.023,970.138 451.5,971.5C 458.052,972.827 464.719,974.161 471.5,975.5C 474.946,976.687 478.613,977.354 482.5,977.5C 488.274,979.075 494.274,980.075 500.5,980.5C 500.5,981.167 500.5,981.833 500.5,982.5C 477.172,977.904 454.172,973.237 431.5,968.5 Z"/></g>
<g><path style="opacity:1" fill="#3a7ec3" d="M 471.5,975.5 C 464.719,974.161 458.052,972.827 451.5,971.5C 453.143,971.52 454.476,970.853 455.5,969.5C 456.192,970.025 456.692,970.692 457,971.5C 457.561,970.978 458.228,970.645 459,970.5C 462.001,971.918 465.168,972.751 468.5,973C 469.942,973.377 470.942,974.21 471.5,975.5 Z"/></g>
<g><path style="opacity:0.996" fill="#538bc3" d="M 471.5,975.5 C 474.85,975.335 478.183,975.502 481.5,976C 482.056,976.383 482.389,976.883 482.5,977.5C 478.613,977.354 474.946,976.687 471.5,975.5 Z"/></g>
<g><path style="opacity:1" fill="#598bca" d="M 517.5,984.5 C 513.865,983.886 510.198,983.552 506.5,983.5C 504.265,983.795 502.265,983.461 500.5,982.5C 500.5,981.833 500.5,981.167 500.5,980.5C 501.93,980.579 503.264,980.246 504.5,979.5C 509.172,982.501 514.172,983.334 519.5,982C 517.065,982.075 516.398,982.908 517.5,984.5 Z"/></g>
<g><path style="opacity:1" fill="#2975c1" d="M 541.5,989.5 C 538.193,988.949 534.86,988.616 531.5,988.5C 527.409,987.476 523.409,986.143 519.5,984.5C 522.817,985.221 526.151,985.388 529.5,985C 530.308,984.692 530.975,984.192 531.5,983.5C 528.859,982.05 529.192,981.383 532.5,981.5C 535.742,981.783 536.076,982.617 533.5,984C 535.202,985.718 537.035,985.885 539,984.5C 542.357,985.742 542.19,986.576 538.5,987C 540.119,987.236 541.119,988.069 541.5,989.5 Z"/></g>
<g><path style="opacity:0.278" fill="#e4eef5" d="M 506.5,983.5 C 510.198,983.552 513.865,983.886 517.5,984.5C 518.167,984.5 518.833,984.5 519.5,984.5C 523.409,986.143 527.409,987.476 531.5,988.5C 522.995,987.261 514.661,985.595 506.5,983.5 Z"/></g>
<g><path style="opacity:0.129" fill="#e0ebf4" d="M 531.5,988.5 C 534.86,988.616 538.193,988.949 541.5,989.5C 554.484,992.666 567.484,995.333 580.5,997.5C 582.167,998.167 583.833,998.833 585.5,999.5C 567.178,996.57 549.178,992.903 531.5,988.5 Z"/></g>
<g><path style="opacity:0.996" fill="#4584c0" d="M 580.5,997.5 C 583.85,997.335 587.183,997.502 590.5,998C 591.056,998.383 591.389,998.883 591.5,999.5C 589.5,999.5 587.5,999.5 585.5,999.5C 583.833,998.833 582.167,998.167 580.5,997.5 Z"/></g>
</svg>
